<svg xmlns="http://www.w3.org/2000/svg" version="1.1" xmlns:xlink="http://www.w3.org/1999/xlink" xmlns:svgjs="http://svgjs.com/svgjs" width="1440" height="572" preserveAspectRatio="none" viewBox="0 0 1440 572"><g mask="url(&quot;#SvgjsMask1025&quot;)" fill="none"><rect width="1440" height="572" x="0" y="0" fill="rgba(252, 192, 42, 1)"></rect><path d="M0,434.052C106.368,451.265,216.483,535.199,312.401,486.105C407.036,437.668,428.013,309.053,448.164,204.67C465.349,115.652,418.563,30.583,417.839,-60.076C416.956,-170.711,514.187,-299.18,443.461,-384.261C373.233,-468.744,231.923,-412.881,122.102,-415.842C40.5,-418.042,-40.359,-426.743,-117.268,-399.378C-191.372,-373.011,-245.757,-316.113,-304.664,-263.993C-372.819,-203.69,-465.896,-158.309,-489.163,-70.331C-512.848,19.229,-467.8,111.879,-425.918,194.51C-385.304,274.638,-331.844,350.488,-253.545,394.524C-177.45,437.321,-86.183,420.106,0,434.052" fill="#e8a703"></path><path d="M1440 1107.786C1554.44 1114.942 1670.863 1139.9299999999998 1776.821 1096.104 1893.087 1048.0140000000001 2021.279 974.188 2055.631 853.149 2090.043 731.899 1979.62 620.75 1946.222 499.216 1918.07 396.772 1937.658 280.892 1874.8310000000001 195.21699999999998 1810.011 106.82400000000001 1704.026 61.63900000000001 1600.001 27.08699999999999 1493.066-8.432000000000016 1381.897-21.950000000000045 1270.4180000000001-5.543000000000006 1146.176 12.741999999999962 1006.7719999999999 30.451000000000022 925.67 126.32999999999998 844.703 222.04899999999998 874.869 364.145 853.245 487.637 830.788 615.885 739.244 748.932 796.143 866.04 853.123 983.3140000000001 1007.1410000000001 1009.7760000000001 1129.205 1055.607 1229.583 1093.295 1332.989 1101.094 1440 1107.786" fill="#fdd164"></path></g><defs><mask id="SvgjsMask1025"><rect width="1440" height="572" fill="#ffffff"></rect></mask></defs></svg>