<svg xmlns="http://www.w3.org/2000/svg" xmlns:xlink="http://www.w3.org/1999/xlink" contentScriptType="text/ecmascript"
     zoomAndPan="magnify" contentStyleType="text/css" preserveAspectRatio="xMidYMid meet" version="1.0"
     viewBox="20.2 0.11 523.14 528.75">
    <defs>
        <clipPath id="clip-0">
            <path d="M 180 203 L 495 203 L 495 528.390625 L 180 528.390625 Z M 180 203 " clip-rule="nonzero"/>
        </clipPath>
        <clipPath id="clip-1">
            <path d="M 40 0.109375 L 543.34375 0.109375 L 543.34375 504.539062 L 40 504.539062 Z M 40 0.109375 "
                  clip-rule="nonzero"/>
        </clipPath>
    </defs>
    <g clip-path="url(#clip-0)">
        <path fill="rgb(100%, 69.018555%, 0%)"
              d="M 405.210938 378.597656 L 377.949219 390.820312 L 351.765625 368.984375 L 384.226562 358.171875 Z M 360.078125 431.550781 L 335.667969 413.613281 L 342.117188 379.519531 L 368.652344 401.652344 Z M 292.355469 418.746094 L 295.292969 387.792969 L 328.082031 376.867188 L 321.636719 410.964844 Z M 269.683594 352.980469 L 296.683594 341.625 L 322.949219 363.535156 L 290.601562 374.3125 Z M 314.640625 300.972656 L 339.054688 318.90625 L 332.601562 352.996094 L 306.066406 330.863281 Z M 382.363281 313.769531 L 379.421875 344.726562 L 346.632812 355.648438 L 353.085938 321.558594 Z M 494.328125 313.976562 C 493.078125 310.238281 489.039062 308.21875 485.296875 309.460938 L 471.320312 314.117188 L 476.460938 303.835938 C 478.226562 300.3125 476.800781 296.023438 473.269531 294.261719 C 469.746094 292.5 465.453125 293.929688 463.695312 297.453125 L 452.15625 320.5 L 436.601562 325.683594 L 449.449219 300.003906 C 451.214844 296.472656 449.785156 292.191406 446.257812 290.425781 C 442.734375 288.664062 438.445312 290.09375 436.679688 293.617188 L 417.441406 332.0625 L 394.238281 339.792969 L 397.550781 304.914062 C 397.769531 302.589844 396.835938 300.300781 395.054688 298.792969 C 393.273438 297.285156 390.863281 296.738281 388.605469 297.339844 L 356.023438 306.003906 L 360.5 282.355469 L 396.035156 258.136719 C 399.296875 255.914062 400.136719 251.476562 397.910156 248.222656 C 395.691406 244.964844 391.253906 244.128906 387.992188 246.347656 L 364.253906 262.523438 L 367.324219 246.296875 L 388.480469 231.875 C 391.738281 229.65625 392.578125 225.21875 390.355469 221.960938 C 388.136719 218.707031 383.691406 217.863281 380.4375 220.085938 L 371.078125 226.464844 L 373.789062 212.121094 C 374.523438 208.246094 371.976562 204.515625 368.101562 203.78125 C 364.230469 203.054688 360.492188 205.59375 359.761719 209.464844 L 357.019531 223.933594 L 350.539062 214.433594 C 348.320312 211.179688 343.875 210.339844 340.621094 212.558594 C 337.363281 214.78125 336.519531 219.21875 338.742188 222.476562 L 353.265625 243.769531 L 350.222656 259.871094 L 334.035156 236.148438 C 331.816406 232.890625 327.375 232.054688 324.113281 234.273438 C 320.859375 236.496094 320.015625 240.929688 322.238281 244.191406 L 346.472656 279.703125 L 341.996094 303.351562 L 314.832031 283.398438 C 312.945312 282.015625 310.507812 281.640625 308.296875 282.394531 C 306.085938 283.152344 304.382812 284.941406 303.738281 287.183594 L 294.078125 320.863281 L 275.300781 305.203125 L 271.433594 262.386719 C 271.085938 258.464844 267.625 255.566406 263.683594 255.921875 C 259.757812 256.277344 256.859375 259.742188 257.214844 263.671875 L 259.796875 292.269531 L 247.203125 281.769531 L 244.886719 256.097656 C 244.535156 252.175781 241.066406 249.273438 237.132812 249.632812 C 233.207031 249.988281 230.308594 253.457031 230.664062 257.382812 L 231.699219 268.832031 L 220.386719 259.398438 C 217.363281 256.875 212.859375 257.277344 210.332031 260.304688 C 207.804688 263.332031 208.210938 267.832031 211.238281 270.359375 L 222.449219 279.710938 L 211.171875 280.726562 C 207.246094 281.082031 204.347656 284.546875 204.703125 288.472656 C 205.039062 292.183594 208.148438 294.96875 211.804688 294.96875 C 212.019531 294.96875 212.234375 294.957031 212.453125 294.941406 L 237.957031 292.644531 L 250.644531 303.222656 L 222.03125 305.800781 C 218.101562 306.15625 215.207031 309.625 215.554688 313.550781 C 215.890625 317.257812 219.007812 320.046875 222.660156 320.046875 C 222.875 320.046875 223.089844 320.035156 223.3125 320.015625 L 266.148438 316.15625 L 284.34375 331.335938 L 254.460938 343.902344 C 252.28125 344.816406 250.699219 346.753906 250.230469 349.070312 C 249.765625 351.386719 250.476562 353.78125 252.132812 355.472656 L 275.53125 379.332031 L 252.761719 386.914062 L 214.292969 367.691406 C 210.761719 365.925781 206.476562 367.355469 204.710938 370.878906 C 202.945312 374.402344 204.375 378.691406 207.902344 380.453125 L 233.601562 393.296875 L 217.925781 398.519531 L 195.023438 387.074219 C 191.492188 385.3125 187.203125 386.738281 185.441406 390.261719 C 183.675781 393.789062 185.105469 398.074219 188.632812 399.835938 L 198.761719 404.902344 L 184.90625 409.515625 C 181.167969 410.757812 179.144531 414.800781 180.390625 418.542969 C 181.390625 421.53125 184.175781 423.425781 187.164062 423.425781 C 187.914062 423.425781 188.671875 423.304688 189.425781 423.050781 L 203.398438 418.402344 L 198.253906 428.683594 C 196.488281 432.207031 197.917969 436.492188 201.445312 438.257812 C 202.46875 438.769531 203.5625 439.007812 204.636719 439.007812 C 207.253906 439.007812 209.773438 437.566406 211.027344 435.066406 L 222.554688 412.019531 L 238.117188 406.835938 L 225.265625 432.515625 C 223.5 436.042969 224.929688 440.328125 228.457031 442.089844 C 229.480469 442.601562 230.574219 442.847656 231.648438 442.847656 C 234.265625 442.847656 236.785156 441.402344 238.039062 438.902344 L 257.273438 400.457031 L 280.480469 392.726562 L 277.167969 427.605469 C 276.949219 429.929688 277.878906 432.214844 279.660156 433.722656 C 280.96875 434.828125 282.609375 435.414062 284.277344 435.414062 C 284.890625 435.414062 285.503906 435.335938 286.113281 435.175781 L 318.691406 426.515625 L 314.214844 450.164062 L 278.679688 474.382812 C 275.425781 476.605469 274.582031 481.042969 276.804688 484.296875 C 279.027344 487.554688 283.46875 488.394531 286.730469 486.175781 L 310.460938 469.996094 L 307.417969 486.097656 L 286.113281 500.617188 C 282.855469 502.839844 282.015625 507.28125 284.238281 510.535156 C 286.460938 513.789062 290.902344 514.628906 294.160156 512.410156 L 303.664062 505.933594 L 300.925781 520.394531 C 300.195312 524.269531 302.742188 528 306.613281 528.734375 C 307.066406 528.820312 307.511719 528.859375 307.949219 528.859375 C 311.3125 528.859375 314.3125 526.472656 314.960938 523.050781 L 317.675781 508.707031 L 324.054688 518.058594 C 325.4375 520.085938 327.679688 521.175781 329.960938 521.175781 C 331.347656 521.175781 332.746094 520.773438 333.976562 519.933594 C 337.234375 517.714844 338.074219 513.273438 335.855469 510.019531 L 321.425781 488.875 L 324.496094 472.648438 L 340.679688 496.371094 C 342.0625 498.394531 344.304688 499.484375 346.589844 499.484375 C 347.972656 499.484375 349.375 499.085938 350.605469 498.246094 C 353.863281 496.023438 354.703125 491.585938 352.476562 488.328125 L 328.25 452.816406 L 332.71875 429.164062 L 359.886719 449.117188 C 361.128906 450.03125 362.613281 450.503906 364.117188 450.503906 C 364.890625 450.503906 365.671875 450.378906 366.425781 450.121094 C 368.632812 449.371094 370.335938 447.582031 370.980469 445.332031 L 380.644531 411.65625 L 399.421875 427.316406 L 403.28125 470.132812 C 403.617188 473.835938 406.726562 476.625 410.382812 476.625 C 410.597656 476.625 410.816406 476.617188 411.03125 476.597656 C 414.960938 476.242188 417.855469 472.773438 417.503906 468.847656 L 414.925781 440.25 L 427.515625 450.75 L 429.828125 476.417969 C 430.164062 480.125 433.28125 482.914062 436.933594 482.914062 C 437.144531 482.914062 437.363281 482.902344 437.582031 482.882812 C 441.511719 482.527344 444.402344 479.058594 444.050781 475.132812 L 443.019531 463.683594 L 454.328125 473.117188 C 455.664062 474.234375 457.289062 474.773438 458.898438 474.773438 C 460.945312 474.773438 462.976562 473.902344 464.382812 472.214844 C 466.914062 469.183594 466.507812 464.6875 463.480469 462.164062 L 452.265625 452.804688 L 463.546875 451.789062 C 467.472656 451.433594 470.371094 447.96875 470.019531 444.046875 C 469.664062 440.121094 466.207031 437.222656 462.265625 437.582031 L 436.765625 439.878906 L 424.070312 429.292969 L 452.691406 426.710938 C 456.617188 426.359375 459.515625 422.890625 459.160156 418.964844 C 458.804688 415.042969 455.351562 412.140625 451.40625 412.5 L 408.566406 416.359375 L 390.144531 400.992188 L 420.640625 387.320312 C 422.796875 386.347656 424.335938 384.378906 424.75 382.054688 C 425.164062 379.722656 424.394531 377.34375 422.703125 375.695312 L 399.476562 353.09375 L 421.957031 345.601562 L 460.429688 364.828125 C 461.453125 365.339844 462.539062 365.582031 463.617188 365.582031 C 466.230469 365.582031 468.757812 364.136719 470.003906 361.636719 C 471.769531 358.113281 470.339844 353.828125 466.816406 352.0625 L 441.117188 339.222656 L 456.796875 334 L 479.699219 345.445312 C 480.722656 345.957031 481.8125 346.203125 482.886719 346.203125 C 485.507812 346.203125 488.027344 344.753906 489.277344 342.257812 C 491.039062 338.734375 489.609375 334.445312 486.085938 332.679688 L 475.953125 327.617188 L 489.808594 323.003906 C 493.554688 321.757812 495.574219 317.71875 494.328125 313.976562 "
              fill-opacity="1" fill-rule="nonzero"/>
    </g>
    <path fill="rgb(98.81897%, 75.289917%, 26.269531%)"
          d="M 168.171875 208.871094 L 147.988281 203.089844 L 143.96875 179.359375 L 166.542969 187.363281 Z M 119.105469 217.179688 L 113.554688 196.332031 L 132.230469 181.347656 L 136.253906 205.074219 Z M 102.058594 164.511719 L 124.359375 172.414062 L 105.980469 187.15625 L 87.289062 178.34375 Z M 104.640625 131.875 L 124.824219 137.65625 L 128.851562 161.386719 L 106.273438 153.386719 Z M 153.714844 123.570312 L 159.261719 144.414062 L 140.582031 159.398438 L 136.558594 135.667969 Z M 170.664062 176.203125 L 148.457031 168.332031 L 166.90625 153.53125 L 185.410156 161.730469 Z M 248.648438 203.839844 L 240.011719 200.777344 L 246.097656 197.878906 C 249.066406 196.46875 250.320312 192.921875 248.910156 189.957031 C 247.5 186.992188 243.945312 185.730469 240.980469 187.144531 L 224.148438 195.15625 L 214.441406 191.714844 L 232.136719 183.292969 C 235.101562 181.878906 236.359375 178.328125 234.945312 175.367188 C 233.535156 172.398438 229.980469 171.140625 227.019531 172.550781 L 198.578125 186.09375 L 183.144531 180.625 L 199.996094 164.085938 C 201.398438 162.703125 202.03125 160.71875 201.679688 158.78125 C 201.328125 156.84375 200.039062 155.203125 198.238281 154.40625 L 177.351562 145.148438 L 189.925781 135.0625 L 221.238281 138.484375 C 221.460938 138.511719 221.679688 138.523438 221.898438 138.523438 C 224.890625 138.523438 227.472656 136.265625 227.804688 133.222656 C 228.160156 129.960938 225.804688 127.023438 222.539062 126.664062 L 203.050781 124.53125 L 211.085938 118.085938 L 229.617188 120.113281 C 229.835938 120.136719 230.054688 120.148438 230.269531 120.148438 C 233.269531 120.148438 235.847656 117.894531 236.179688 114.847656 C 236.539062 111.585938 234.175781 108.648438 230.910156 108.292969 L 224.210938 107.558594 L 231.355469 101.824219 C 233.917969 99.765625 234.324219 96.023438 232.273438 93.464844 C 230.214844 90.902344 226.46875 90.496094 223.90625 92.550781 L 216.6875 98.339844 L 217.4375 91.511719 C 217.792969 88.25 215.4375 85.3125 212.167969 84.953125 C 208.898438 84.601562 205.964844 86.953125 205.609375 90.21875 L 203.5625 108.871094 L 195.601562 115.257812 L 197.734375 95.785156 C 198.089844 92.519531 195.734375 89.585938 192.46875 89.226562 C 189.195312 88.882812 186.257812 91.226562 185.902344 94.492188 L 182.476562 125.789062 L 169.40625 136.269531 L 163.011719 112.253906 C 162.511719 110.375 161.121094 108.859375 159.289062 108.195312 C 157.460938 107.527344 155.421875 107.804688 153.828125 108.925781 L 134.355469 122.667969 L 131.609375 106.457031 L 149.847656 80.792969 C 151.753906 78.117188 151.121094 74.402344 148.441406 72.503906 C 145.765625 70.601562 142.050781 71.230469 140.148438 73.90625 L 128.796875 89.878906 L 127.078125 79.726562 L 137.871094 64.539062 C 139.777344 61.859375 139.144531 58.148438 136.464844 56.25 C 133.785156 54.34375 130.070312 54.972656 128.167969 57.648438 L 124.261719 63.144531 L 122.734375 54.113281 C 122.183594 50.878906 119.109375 48.695312 115.871094 49.246094 C 112.632812 49.792969 110.453125 52.859375 111 56.097656 L 112.546875 65.21875 L 106.945312 61.246094 C 104.265625 59.34375 100.550781 59.96875 98.648438 62.648438 C 96.742188 65.328125 97.371094 69.042969 100.050781 70.941406 L 115.355469 81.804688 L 117.0625 91.863281 L 101.082031 80.519531 C 98.40625 78.621094 94.6875 79.25 92.789062 81.925781 C 90.882812 84.601562 91.511719 88.316406 94.191406 90.214844 L 119.875 108.449219 L 122.621094 124.65625 L 99.703125 118.089844 C 97.835938 117.554688 95.816406 117.96875 94.304688 119.199219 C 92.796875 120.425781 91.984375 122.316406 92.128906 124.253906 L 94.011719 149.039062 L 78.214844 143.441406 L 64.664062 115.019531 C 63.25 112.054688 59.699219 110.792969 56.734375 112.210938 C 53.769531 113.621094 52.507812 117.171875 53.921875 120.136719 L 62.355469 137.820312 L 52.730469 134.410156 L 44.65625 117.472656 C 43.242188 114.511719 39.691406 113.246094 36.722656 114.664062 C 33.753906 116.074219 32.5 119.625 33.914062 122.585938 L 36.867188 128.789062 L 28.140625 125.695312 C 25.042969 124.601562 21.644531 126.222656 20.546875 129.316406 C 19.445312 132.410156 21.070312 135.808594 24.164062 136.90625 L 32.800781 139.96875 L 26.714844 142.863281 C 23.75 144.277344 22.492188 147.824219 23.90625 150.792969 C 24.921875 152.929688 27.054688 154.183594 29.277344 154.183594 C 30.136719 154.183594 31.011719 153.996094 31.832031 153.601562 L 48.664062 145.585938 L 58.375 149.027344 L 40.679688 157.453125 C 37.714844 158.867188 36.453125 162.414062 37.867188 165.382812 C 38.890625 167.519531 41.023438 168.773438 43.246094 168.773438 C 44.101562 168.773438 44.972656 168.585938 45.800781 168.191406 L 74.238281 154.648438 L 89.4375 160.035156 L 72.765625 175.652344 C 71.328125 176.996094 70.648438 178.972656 70.957031 180.914062 C 71.261719 182.859375 72.511719 184.527344 74.296875 185.371094 L 95.65625 195.441406 L 82.886719 205.683594 L 51.574219 202.257812 C 48.308594 201.910156 45.371094 204.261719 45.011719 207.523438 C 44.65625 210.789062 47.011719 213.726562 50.28125 214.085938 L 69.765625 216.210938 L 61.730469 222.660156 L 43.199219 220.632812 C 39.933594 220.292969 36.992188 222.632812 36.636719 225.898438 C 36.28125 229.160156 38.636719 232.097656 41.902344 232.453125 L 48.605469 233.191406 L 41.460938 238.917969 C 38.898438 240.976562 38.488281 244.71875 40.542969 247.28125 C 41.71875 248.742188 43.445312 249.507812 45.1875 249.507812 C 46.496094 249.507812 47.8125 249.078125 48.90625 248.195312 L 56.128906 242.40625 L 55.378906 249.234375 C 55.019531 252.496094 57.382812 255.433594 60.648438 255.792969 C 60.867188 255.8125 61.085938 255.828125 61.304688 255.828125 C 64.296875 255.828125 66.875 253.570312 67.210938 250.527344 L 69.253906 231.875 L 77.214844 225.484375 L 75.082031 244.960938 C 74.726562 248.226562 77.085938 251.164062 80.351562 251.519531 C 80.570312 251.542969 80.789062 251.554688 81.003906 251.554688 C 84 251.554688 86.578125 249.300781 86.914062 246.253906 L 90.339844 214.957031 L 103.40625 204.476562 L 109.800781 228.492188 C 110.304688 230.371094 111.695312 231.890625 113.523438 232.554688 C 114.183594 232.792969 114.867188 232.910156 115.554688 232.910156 C 116.765625 232.910156 117.964844 232.535156 118.984375 231.820312 L 138.460938 218.078125 L 141.207031 234.285156 L 122.964844 259.953125 C 121.058594 262.628906 121.691406 266.34375 124.371094 268.242188 C 125.417969 268.988281 126.621094 269.34375 127.808594 269.34375 C 129.671875 269.34375 131.507812 268.472656 132.667969 266.839844 L 144.015625 250.867188 L 145.722656 260.929688 L 134.851562 276.226562 C 132.949219 278.90625 133.578125 282.613281 136.257812 284.515625 C 137.304688 285.257812 138.507812 285.613281 139.695312 285.613281 C 141.5625 285.613281 143.398438 284.742188 144.554688 283.109375 L 148.535156 277.507812 L 150.082031 286.632812 C 150.570312 289.535156 153.09375 291.585938 155.941406 291.585938 C 156.273438 291.585938 156.605469 291.558594 156.941406 291.503906 C 160.183594 290.957031 162.363281 287.886719 161.816406 284.648438 L 160.285156 275.617188 L 165.777344 279.515625 C 168.457031 281.417969 172.171875 280.789062 174.078125 278.113281 C 175.980469 275.4375 175.351562 271.722656 172.671875 269.820312 L 157.46875 259.03125 L 155.75 248.878906 L 171.730469 260.226562 C 174.410156 262.125 178.125 261.5 180.03125 258.816406 C 181.933594 256.140625 181.304688 252.429688 178.625 250.53125 L 152.941406 232.296875 L 150.191406 216.09375 L 173.109375 222.65625 C 173.648438 222.8125 174.203125 222.886719 174.746094 222.886719 C 176.105469 222.886719 177.433594 222.425781 178.507812 221.546875 C 180.019531 220.320312 180.828125 218.429688 180.683594 216.488281 L 178.804688 191.707031 L 194.601562 197.304688 L 208.148438 225.726562 C 209.171875 227.863281 211.304688 229.117188 213.527344 229.117188 C 214.382812 229.117188 215.253906 228.929688 216.082031 228.539062 C 219.050781 227.125 220.304688 223.578125 218.890625 220.613281 L 210.460938 202.925781 L 220.085938 206.339844 L 228.160156 223.277344 C 229.179688 225.414062 231.3125 226.664062 233.535156 226.664062 C 234.394531 226.664062 235.265625 226.476562 236.089844 226.085938 C 239.058594 224.671875 240.316406 221.125 238.902344 218.15625 L 235.945312 211.957031 L 244.671875 215.050781 C 245.332031 215.28125 246.003906 215.394531 246.660156 215.394531 C 249.109375 215.394531 251.40625 213.875 252.269531 211.433594 C 253.367188 208.339844 251.75 204.9375 248.648438 203.839844 "
          fill-opacity="1" fill-rule="nonzero"/>
    <path fill="rgb(98.81897%, 75.689697%, 14.118958%)"
          d="M 424.523438 137.558594 L 406.324219 135.039062 L 399.914062 114.976562 L 420.457031 119.125 Z M 382.757812 150.894531 L 375.375 133.515625 L 389.707031 118.230469 L 396.121094 138.296875 Z M 361.269531 107.167969 L 381.558594 111.265625 L 367.464844 126.300781 L 350.1875 120.96875 Z M 359.550781 78.285156 L 377.75 80.808594 L 384.164062 100.875 L 363.617188 96.722656 Z M 401.316406 64.953125 L 408.695312 82.335938 L 394.367188 97.613281 L 387.949219 77.550781 Z M 422.714844 108.660156 L 402.511719 104.578125 L 416.667969 89.484375 L 433.703125 94.308594 Z M 494.492188 123.15625 L 486.765625 121.597656 L 491.542969 118.425781 C 494.011719 116.792969 494.683594 113.46875 493.046875 111.007812 C 491.410156 108.546875 488.085938 107.875 485.625 109.507812 L 471.917969 118.597656 L 463.25 116.847656 L 477.503906 107.390625 C 479.96875 105.757812 480.640625 102.433594 479.003906 99.972656 C 477.367188 97.511719 474.039062 96.84375 471.582031 98.472656 L 448.40625 113.847656 L 434.398438 111.019531 L 446.996094 94.558594 C 448.074219 93.148438 448.382812 91.304688 447.828125 89.621094 C 447.265625 87.941406 445.910156 86.644531 444.203125 86.160156 L 424.910156 80.695312 L 434.527344 70.441406 L 462.335938 69.542969 C 465.289062 69.441406 467.609375 66.972656 467.511719 64.019531 C 467.417969 61.121094 465.042969 58.839844 462.164062 58.839844 C 462.101562 58.839844 462.046875 58.839844 461.988281 58.84375 L 444.886719 59.394531 L 450.933594 52.945312 L 467.371094 52.414062 C 470.332031 52.316406 472.652344 49.84375 472.550781 46.890625 C 472.457031 43.933594 469.957031 41.632812 467.027344 41.714844 L 461.292969 41.902344 L 466.683594 36.15625 C 468.703125 34 468.597656 30.613281 466.4375 28.59375 C 464.28125 26.566406 460.890625 26.679688 458.867188 28.835938 L 453.425781 34.640625 L 453.238281 28.792969 C 453.140625 25.898438 450.765625 23.613281 447.886719 23.613281 C 447.828125 23.613281 447.769531 23.617188 447.710938 23.617188 C 444.753906 23.714844 442.4375 26.183594 442.53125 29.140625 L 443.070312 45.6875 L 437.074219 52.074219 L 436.523438 34.988281 C 436.421875 32.03125 433.910156 29.722656 430.996094 29.8125 C 428.035156 29.910156 425.71875 32.378906 425.816406 35.332031 L 426.714844 63.121094 L 416.707031 73.792969 L 408.167969 53.695312 C 407.484375 52.082031 406.050781 50.90625 404.335938 50.546875 C 402.621094 50.1875 400.839844 50.6875 399.566406 51.894531 L 384.339844 66.246094 L 379.96875 52.574219 L 392.71875 27.871094 C 394.074219 25.246094 393.042969 22.015625 390.414062 20.660156 C 387.789062 19.300781 384.558594 20.339844 383.203125 22.964844 L 375.359375 38.160156 L 372.667969 29.738281 L 380.207031 15.128906 C 381.566406 12.503906 380.53125 9.277344 377.90625 7.921875 C 375.273438 6.566406 372.046875 7.59375 370.691406 10.222656 L 368.0625 15.320312 L 365.664062 7.816406 C 364.761719 5.003906 361.75 3.453125 358.929688 4.347656 C 356.117188 5.246094 354.558594 8.261719 355.460938 11.074219 L 357.882812 18.652344 L 352.679688 15.972656 C 350.046875 14.617188 346.824219 15.644531 345.46875 18.273438 C 344.113281 20.902344 345.140625 24.128906 347.769531 25.480469 L 362.488281 33.074219 L 365.160156 41.417969 L 349.953125 33.578125 C 347.324219 32.222656 344.09375 33.257812 342.738281 35.882812 C 341.382812 38.507812 342.417969 41.738281 345.042969 43.089844 L 369.769531 55.835938 L 374.132812 69.503906 L 353.398438 66.628906 C 351.660156 66.390625 349.917969 67.011719 348.730469 68.296875 C 347.542969 69.585938 347.058594 71.371094 347.433594 73.085938 L 352.136719 94.40625 L 337.792969 91.507812 L 322.402344 68.34375 C 320.765625 65.882812 317.445312 65.210938 314.984375 66.84375 C 312.519531 68.480469 311.847656 71.800781 313.484375 74.261719 L 322.945312 88.511719 L 314.351562 86.769531 L 305.191406 72.980469 C 303.558594 70.519531 300.234375 69.851562 297.769531 71.484375 C 295.304688 73.117188 294.636719 76.441406 296.269531 78.902344 L 299.503906 83.777344 L 291.707031 82.199219 C 288.808594 81.613281 285.980469 83.488281 285.394531 86.386719 C 284.808594 89.28125 286.683594 92.105469 289.582031 92.691406 L 297.304688 94.253906 L 292.523438 97.421875 C 290.058594 99.054688 289.390625 102.378906 291.027344 104.839844 C 292.058594 106.394531 293.757812 107.230469 295.492188 107.230469 C 296.511719 107.230469 297.539062 106.941406 298.449219 106.339844 L 312.148438 97.25 L 320.820312 99.003906 L 306.570312 108.453125 C 304.105469 110.089844 303.433594 113.410156 305.070312 115.875 C 306.097656 117.425781 307.800781 118.269531 309.535156 118.269531 C 310.554688 118.269531 311.582031 117.980469 312.492188 117.371094 L 335.667969 102 L 349.453125 104.785156 L 336.902344 120.414062 C 335.796875 121.792969 335.441406 123.636719 335.960938 125.328125 C 336.480469 127.027344 337.808594 128.351562 339.503906 128.871094 L 359.316406 134.988281 L 349.542969 145.410156 L 321.738281 146.308594 C 318.78125 146.402344 316.464844 148.878906 316.558594 151.832031 C 316.652344 154.785156 319.152344 157.074219 322.085938 157.007812 L 339.183594 156.453125 L 333.132812 162.902344 L 316.699219 163.4375 C 313.742188 163.53125 311.421875 166.003906 311.515625 168.957031 C 311.613281 171.855469 313.988281 174.132812 316.871094 174.132812 C 316.925781 174.132812 316.984375 174.132812 317.042969 174.132812 L 322.777344 173.949219 L 317.390625 179.695312 C 315.367188 181.851562 315.476562 185.234375 317.632812 187.257812 C 318.667969 188.226562 319.980469 188.703125 321.296875 188.703125 C 322.722656 188.703125 324.148438 188.136719 325.203125 187.011719 L 330.644531 181.210938 L 330.835938 187.050781 C 330.929688 189.949219 333.308594 192.230469 336.183594 192.230469 C 336.246094 192.230469 336.304688 192.230469 336.363281 192.230469 C 339.320312 192.132812 341.636719 189.660156 341.542969 186.703125 L 341.007812 170.164062 L 347 163.773438 L 347.550781 180.859375 C 347.644531 183.753906 350.023438 186.039062 352.902344 186.039062 C 352.960938 186.039062 353.019531 186.035156 353.078125 186.035156 C 356.035156 185.941406 358.351562 183.46875 358.257812 180.515625 L 357.359375 152.722656 L 367.367188 142.054688 L 375.902344 162.15625 C 376.589844 163.765625 378.019531 164.945312 379.734375 165.304688 C 380.101562 165.378906 380.46875 165.414062 380.832031 165.414062 C 382.183594 165.414062 383.503906 164.902344 384.507812 163.957031 L 399.734375 149.601562 L 404.105469 163.269531 L 391.351562 187.976562 C 389.996094 190.605469 391.027344 193.832031 393.65625 195.1875 C 394.441406 195.589844 395.277344 195.785156 396.105469 195.785156 C 398.046875 195.785156 399.921875 194.726562 400.871094 192.882812 L 408.710938 177.691406 L 411.378906 186.03125 L 403.789062 200.742188 C 402.429688 203.367188 403.464844 206.597656 406.089844 207.953125 C 406.878906 208.359375 407.714844 208.550781 408.542969 208.550781 C 410.480469 208.550781 412.355469 207.492188 413.304688 205.648438 L 415.988281 200.453125 L 418.410156 208.027344 C 419.136719 210.304688 421.246094 211.753906 423.507812 211.753906 C 424.046875 211.753906 424.597656 211.671875 425.136719 211.503906 C 427.957031 210.601562 429.511719 207.589844 428.613281 204.773438 L 426.21875 197.273438 L 431.3125 199.902344 C 433.941406 201.257812 437.171875 200.226562 438.527344 197.597656 C 439.882812 194.972656 438.851562 191.746094 436.222656 190.390625 L 421.609375 182.855469 L 418.914062 174.433594 L 434.121094 182.269531 C 436.75 183.628906 439.976562 182.59375 441.332031 179.96875 C 442.6875 177.339844 441.660156 174.109375 439.03125 172.757812 L 414.304688 160.015625 L 409.941406 146.347656 L 430.671875 149.21875 C 430.917969 149.25 431.164062 149.269531 431.410156 149.269531 C 432.886719 149.269531 434.320312 148.65625 435.339844 147.546875 C 436.53125 146.257812 437.011719 144.476562 436.636719 142.765625 L 431.933594 121.441406 L 446.285156 124.339844 L 461.664062 147.503906 C 462.699219 149.054688 464.398438 149.894531 466.132812 149.894531 C 467.148438 149.894531 468.179688 149.605469 469.089844 149.003906 C 471.550781 147.371094 472.226562 144.046875 470.589844 141.582031 L 461.128906 127.339844 L 469.71875 129.074219 L 478.878906 142.863281 C 479.910156 144.417969 481.613281 145.261719 483.34375 145.261719 C 484.359375 145.257812 485.394531 144.964844 486.300781 144.363281 C 488.765625 142.726562 489.4375 139.40625 487.800781 136.945312 L 484.5625 132.074219 L 492.367188 133.648438 C 492.726562 133.722656 493.082031 133.753906 493.433594 133.753906 C 495.929688 133.753906 498.167969 132.003906 498.679688 129.464844 C 499.261719 126.5625 497.390625 123.742188 494.492188 123.15625 "
          fill-opacity="1" fill-rule="nonzero"/>
    <g clip-path="url(#clip-1)">
        <path fill="rgb(0%, 0%, 0%)"
              d="M 315.878906 132.269531 C 317.460938 137.21875 322.757812 139.949219 327.710938 138.367188 C 332.667969 136.789062 335.398438 131.492188 333.816406 126.542969 C 332.234375 121.589844 326.9375 118.859375 321.980469 120.441406 C 317.03125 122.019531 314.292969 127.316406 315.878906 132.269531 Z M 380.804688 187.371094 C 385.761719 185.789062 388.492188 180.492188 386.910156 175.542969 C 385.324219 170.59375 380.027344 167.859375 375.074219 169.441406 C 370.125 171.023438 367.386719 176.320312 368.96875 181.269531 C 370.554688 186.21875 375.851562 188.953125 380.804688 187.371094 Z M 453.375 154.324219 C 451.792969 149.375 446.496094 146.644531 441.539062 148.226562 C 436.585938 149.808594 433.855469 155.101562 435.4375 160.050781 C 437.015625 165 442.316406 167.730469 447.269531 166.152344 C 452.222656 164.566406 454.957031 159.277344 453.375 154.324219 Z M 330.699219 61.523438 C 332.277344 66.476562 337.578125 69.207031 342.535156 67.625 C 347.484375 66.042969 350.21875 60.746094 348.632812 55.796875 C 347.054688 50.847656 341.757812 48.113281 336.800781 49.695312 C 331.847656 51.277344 329.117188 56.574219 330.699219 61.523438 Z M 403.269531 28.476562 C 398.316406 30.058594 395.582031 35.355469 397.164062 40.308594 C 398.746094 45.257812 404.046875 47.988281 408.996094 46.40625 C 413.949219 44.824219 416.679688 39.53125 415.101562 34.578125 C 413.519531 29.628906 408.21875 26.898438 403.269531 28.476562 Z M 456.378906 77.539062 C 451.425781 79.117188 448.691406 84.414062 450.273438 89.359375 C 451.855469 94.3125 457.15625 97.042969 462.105469 95.460938 C 467.0625 93.882812 469.796875 88.589844 468.210938 83.636719 C 466.628906 78.6875 461.328125 75.957031 456.378906 77.539062 Z M 362.132812 117.472656 C 362.820312 119.621094 365.121094 120.804688 367.269531 120.121094 C 369.421875 119.433594 370.605469 117.132812 369.921875 114.984375 C 369.234375 112.832031 366.933594 111.648438 364.78125 112.332031 C 362.628906 113.023438 361.441406 115.320312 362.132812 117.472656 Z M 387.699219 137.964844 C 389.847656 137.277344 391.035156 134.976562 390.347656 132.824219 C 389.660156 130.679688 387.359375 129.492188 385.210938 130.179688 C 383.054688 130.863281 381.871094 133.164062 382.554688 135.3125 C 383.242188 137.464844 385.542969 138.652344 387.699219 137.964844 Z M 415.570312 124.773438 C 414.882812 122.628906 412.582031 121.441406 410.433594 122.128906 C 408.277344 122.8125 407.09375 125.113281 407.777344 127.261719 C 408.464844 129.414062 410.765625 130.597656 412.921875 129.910156 C 415.070312 129.222656 416.253906 126.925781 415.570312 124.773438 Z M 368.425781 91.097656 C 369.109375 93.25 371.414062 94.433594 373.5625 93.75 C 375.714844 93.058594 376.902344 90.761719 376.214844 88.609375 C 375.527344 86.460938 373.226562 85.277344 371.074219 85.960938 C 368.925781 86.648438 367.738281 88.949219 368.425781 91.097656 Z M 396.296875 77.910156 C 394.144531 78.597656 392.960938 80.898438 393.644531 83.046875 C 394.332031 85.199219 396.632812 86.382812 398.785156 85.695312 C 400.9375 85.007812 402.125 82.707031 401.4375 80.558594 C 400.746094 78.410156 398.449219 77.226562 396.296875 77.910156 Z M 416.082031 95.957031 C 413.929688 96.644531 412.742188 98.945312 413.429688 101.09375 C 414.113281 103.246094 416.417969 104.429688 418.566406 103.746094 C 420.71875 103.058594 421.90625 100.757812 421.21875 98.609375 C 420.535156 96.457031 418.230469 95.273438 416.082031 95.957031 Z M 47.261719 185.503906 C 48.242188 191.292969 53.738281 195.199219 59.539062 194.214844 C 65.332031 193.230469 69.238281 187.742188 68.257812 181.945312 C 67.273438 176.15625 61.777344 172.25 55.980469 173.234375 C 50.179688 174.214844 46.277344 179.707031 47.261719 185.503906 Z M 111.167969 257.53125 C 116.964844 256.550781 120.871094 251.054688 119.886719 245.261719 C 118.90625 239.46875 113.410156 235.566406 107.609375 236.546875 C 101.8125 237.53125 97.910156 243.019531 98.894531 248.816406 C 99.871094 254.613281 105.371094 258.511719 111.167969 257.53125 Z M 197.683594 232.089844 C 196.699219 226.296875 191.207031 222.390625 185.40625 223.375 C 179.609375 224.359375 175.707031 229.851562 176.6875 235.644531 C 177.671875 241.4375 183.167969 245.339844 188.960938 244.359375 C 194.761719 243.375 198.667969 237.886719 197.683594 232.089844 Z M 75.128906 108.65625 C 76.113281 114.453125 81.609375 118.351562 87.40625 117.371094 C 93.207031 116.390625 97.105469 110.894531 96.128906 105.101562 C 95.144531 99.308594 89.644531 95.40625 83.851562 96.386719 C 78.050781 97.371094 74.152344 102.859375 75.128906 108.65625 Z M 161.648438 83.214844 C 155.851562 84.199219 151.945312 89.691406 152.929688 95.484375 C 153.910156 101.277344 159.40625 105.179688 165.203125 104.199219 C 171.003906 103.214844 174.90625 97.726562 173.921875 91.929688 C 172.941406 86.136719 167.445312 82.234375 161.648438 83.214844 Z M 213.289062 146.597656 C 207.492188 147.578125 203.585938 153.070312 204.570312 158.867188 C 205.550781 164.660156 211.046875 168.5625 216.847656 167.578125 C 222.644531 166.601562 226.546875 161.105469 225.5625 155.308594 C 224.582031 149.515625 219.085938 145.617188 213.289062 146.597656 Z M 101.40625 176.300781 C 101.832031 178.816406 104.21875 180.511719 106.738281 180.082031 C 109.253906 179.65625 110.949219 177.269531 110.523438 174.753906 C 110.097656 172.238281 107.710938 170.546875 105.191406 170.96875 C 102.675781 171.394531 100.980469 173.785156 101.40625 176.300781 Z M 126.757812 203.316406 C 129.277344 202.890625 130.972656 200.503906 130.546875 197.984375 C 130.121094 195.46875 127.730469 193.777344 125.214844 194.203125 C 122.695312 194.628906 121.003906 197.011719 121.425781 199.53125 C 121.851562 202.046875 124.242188 203.742188 126.757812 203.316406 Z M 160.066406 192.988281 C 159.640625 190.472656 157.253906 188.777344 154.738281 189.203125 C 152.21875 189.628906 150.523438 192.015625 150.953125 194.53125 C 151.378906 197.046875 153.761719 198.742188 156.28125 198.316406 C 158.800781 197.886719 160.496094 195.503906 160.066406 192.988281 Z M 112.65625 147.777344 C 113.082031 150.292969 115.46875 151.984375 117.984375 151.558594 C 120.507812 151.132812 122.199219 148.746094 121.773438 146.230469 C 121.34375 143.714844 118.960938 142.019531 116.441406 142.445312 C 113.925781 142.871094 112.226562 145.261719 112.65625 147.777344 Z M 145.964844 137.449219 C 143.445312 137.875 141.75 140.257812 142.175781 142.777344 C 142.601562 145.292969 144.992188 146.988281 147.507812 146.5625 C 150.027344 146.136719 151.722656 143.75 151.296875 141.234375 C 150.871094 138.714844 148.480469 137.023438 145.964844 137.449219 Z M 165.234375 160.804688 C 162.714844 161.230469 161.019531 163.617188 161.445312 166.132812 C 161.871094 168.648438 164.261719 170.34375 166.777344 169.917969 C 169.296875 169.492188 170.992188 167.105469 170.566406 164.589844 C 170.140625 162.074219 167.75 160.378906 165.234375 160.804688 Z M 217.109375 347.027344 C 215.632812 354.839844 220.769531 362.375 228.589844 363.851562 C 236.410156 365.328125 243.949219 360.191406 245.425781 352.378906 C 246.902344 344.5625 241.761719 337.027344 233.945312 335.550781 C 226.125 334.074219 218.585938 339.210938 217.109375 347.027344 Z M 264.335938 468.460938 C 272.15625 469.9375 279.691406 464.796875 281.167969 456.988281 C 282.648438 449.171875 277.507812 441.636719 269.6875 440.15625 C 261.867188 438.683594 254.332031 443.816406 252.851562 451.632812 C 251.371094 459.449219 256.515625 466.984375 264.335938 468.460938 Z M 386.09375 476.816406 C 387.574219 469 382.4375 461.464844 374.617188 459.988281 C 366.796875 458.511719 359.257812 463.648438 357.777344 471.460938 C 356.300781 479.277344 361.4375 486.8125 369.257812 488.289062 C 377.078125 489.765625 384.617188 484.628906 386.09375 476.816406 Z M 288.621094 262.597656 C 287.140625 270.410156 292.285156 277.941406 300.101562 279.421875 C 307.921875 280.902344 315.460938 275.761719 316.941406 267.945312 C 318.417969 260.136719 313.277344 252.601562 305.457031 251.121094 C 297.636719 249.644531 290.097656 254.78125 288.621094 262.597656 Z M 118.847656 353.640625 C 113.066406 352.550781 107.488281 356.347656 106.398438 362.125 C 105.304688 367.90625 109.105469 373.472656 114.890625 374.566406 C 120.667969 375.660156 126.242188 371.863281 127.335938 366.082031 C 128.429688 360.304688 124.625 354.734375 118.847656 353.640625 Z M 247.539062 23.523438 C 241.761719 22.429688 236.1875 26.230469 235.09375 32.007812 C 234 37.789062 237.800781 43.355469 243.582031 44.445312 C 249.363281 45.542969 254.9375 41.742188 256.03125 35.960938 C 257.121094 30.1875 253.324219 24.617188 247.539062 23.523438 Z M 501.222656 218.601562 C 495.4375 217.511719 489.867188 221.308594 488.769531 227.089844 C 487.679688 232.867188 491.484375 238.4375 497.261719 239.527344 C 503.042969 240.621094 508.617188 236.824219 509.710938 231.046875 C 510.800781 225.265625 507.003906 219.699219 501.222656 218.601562 Z M 534.667969 458.25 C 528.886719 457.15625 523.3125 460.957031 522.222656 466.734375 C 521.128906 472.515625 524.929688 478.082031 530.710938 479.175781 C 536.492188 480.269531 542.0625 476.472656 543.15625 470.691406 C 544.253906 464.914062 540.449219 459.347656 534.667969 458.25 Z M 534.667969 0.300781 C 528.886719 -0.792969 523.3125 3 522.222656 8.78125 C 521.128906 14.558594 524.929688 20.128906 530.710938 21.222656 C 536.492188 22.3125 542.0625 18.515625 543.15625 12.738281 C 544.253906 6.957031 540.449219 1.390625 534.667969 0.300781 Z M 52.90625 10.945312 C 47.121094 9.855469 41.550781 13.65625 40.460938 19.429688 C 39.363281 25.210938 43.167969 30.777344 48.945312 31.871094 C 54.726562 32.960938 60.300781 29.167969 61.394531 23.386719 C 62.484375 17.609375 58.6875 12.039062 52.90625 10.945312 Z M 69.789062 483.363281 C 64.007812 482.273438 58.433594 486.066406 57.339844 491.847656 C 56.25 497.625 60.046875 503.195312 65.828125 504.289062 C 71.613281 505.378906 77.183594 501.582031 78.277344 495.804688 C 79.371094 490.027344 75.566406 484.457031 69.789062 483.363281 Z M 410.382812 270.949219 C 402.566406 269.476562 395.027344 274.609375 393.546875 282.425781 C 392.066406 290.242188 397.210938 297.769531 405.03125 299.253906 C 412.851562 300.730469 420.386719 295.589844 421.863281 287.777344 C 423.34375 279.964844 418.207031 272.429688 410.382812 270.949219 Z M 446.109375 375.644531 C 438.289062 374.171875 430.75 379.304688 429.277344 387.121094 C 427.796875 394.9375 432.9375 402.472656 440.753906 403.949219 C 448.578125 405.425781 456.113281 400.292969 457.59375 392.476562 C 459.074219 384.660156 453.929688 377.125 446.109375 375.644531 Z M 290.152344 360.785156 C 289.511719 364.179688 291.738281 367.449219 295.136719 368.089844 C 298.535156 368.730469 301.808594 366.5 302.449219 363.109375 C 303.089844 359.714844 300.855469 356.441406 297.464844 355.800781 C 294.066406 355.15625 290.792969 357.386719 290.152344 360.785156 Z M 309.625 406.980469 C 313.015625 407.621094 316.289062 405.386719 316.933594 401.996094 C 317.574219 398.601562 315.34375 395.328125 311.945312 394.691406 C 308.554688 394.046875 305.277344 396.28125 304.632812 399.671875 C 303.992188 403.066406 306.226562 406.339844 309.625 406.980469 Z M 356.75 409.519531 C 357.394531 406.128906 355.160156 402.855469 351.761719 402.210938 C 348.371094 401.570312 345.097656 403.800781 344.449219 407.199219 C 343.808594 410.589844 346.042969 413.859375 349.441406 414.5 C 352.832031 415.144531 356.105469 412.914062 356.75 409.519531 Z M 317.84375 329.867188 C 317.199219 333.257812 319.433594 336.535156 322.828125 337.175781 C 326.226562 337.816406 329.5 335.585938 330.140625 332.191406 C 330.78125 328.796875 328.550781 325.527344 325.15625 324.882812 C 321.757812 324.242188 318.484375 326.472656 317.84375 329.867188 Z M 364.972656 332.410156 C 361.574219 331.769531 358.300781 334 357.660156 337.390625 C 357.015625 340.785156 359.253906 344.058594 362.644531 344.699219 C 366.042969 345.34375 369.316406 343.113281 369.957031 339.714844 C 370.597656 336.324219 368.367188 333.054688 364.972656 332.410156 Z M 383.429688 378.410156 C 382.785156 381.804688 379.511719 384.035156 376.117188 383.394531 C 372.71875 382.753906 370.488281 379.480469 371.132812 376.089844 C 371.773438 372.691406 375.046875 370.460938 378.445312 371.105469 C 381.835938 371.746094 384.070312 375.019531 383.429688 378.410156 "
              fill-opacity="1" fill-rule="nonzero"/>
    </g>
</svg>