<?xml version="1.0" standalone="no"?>
<!DOCTYPE svg PUBLIC "-//W3C//DTD SVG 1.0//EN" "http://www.w3.org/TR/2001/REC-SVG-20010904/DTD/svg10.dtd">
<svg xmlns="http://www.w3.org/2000/svg" xmlns:xlink="http://www.w3.org/1999/xlink" id="body_1" width="667" height="667">

<defs>
    <clipPath  id="1">

    <path id=""  clip-rule="evenodd" transform="matrix(1 0 0 1 0 0)"  d="M0 500L0 0L0 0L500 0L500 0L500 500L500 500L0 500z" />    </clipPath>
    <clipPath  id="2">

    <path id=""  clip-rule="evenodd" transform="matrix(1 0 0 1 0 0)"  d="M156.6052 191.96216L156.6052 191.96216L156.6052 191.96216L454.47754 191.96216L454.47754 191.96216L454.47754 499.66016L454.47754 499.66016L156.6052 499.66016z" />    </clipPath>
    <clipPath  id="3">

    <path id=""  clip-rule="evenodd" transform="matrix(1 0 0 1 0 0)"  d="M24.21748 0.10342407L24.21748 0.10342407L24.21748 0.10342407L500.19266 0.10342407L500.19266 0.10342407L500.19266 477.1055L500.19266 477.1055L24.21748 477.1055z" />    </clipPath>
</defs>

<g transform="matrix(1.3333 0 0 1.3333 0 0)">
	<g clip-path="url(#1)" >
		<g clip-path="url(#2)" >
    <path id=""  transform="matrix(1 0 0 -1 0 500)"  d="M453.8422 203.09546C 452.66016 206.63046 448.8407 208.54019 445.302 207.36554L445.302 207.36554L432.0854 202.96246L432.0854 202.96246L436.9465 212.6847L436.9465 212.6847L436.9465 212.6847C 438.61612 216.01654 437.26785 220.07239 433.92862 221.73834L433.92862 221.73834L433.92862 221.73834C 430.59677 223.40427 426.53723 222.0523 424.875 218.72046L424.875 218.72046L413.96335 196.92673L413.96335 196.92673L399.25443 192.02496L399.25443 192.02496L411.4035 216.30838L411.4035 216.30838L411.4035 216.30838C 413.07312 219.64761 411.72116 223.69608 408.38562 225.36569L408.38562 225.36569L408.38562 225.36569C 405.05377 227.03162 400.99792 225.67966 399.3283 222.34781L399.3283 222.34781L381.13608 185.99292L381.13608 185.99292L359.19458 178.68277L359.19458 178.68277L362.32697 211.66519L362.32697 211.66519L362.32697 211.66519C 362.5338 213.86304 361.651 216.02762 359.96658 217.45346L359.96658 217.45346L359.96658 217.45346C 358.2822 218.8793 356.00308 219.39642 353.86804 218.82758L353.86804 218.82758L323.05762 210.63461L323.05762 210.63461L327.29077 232.9972L327.29077 232.9972L360.89374 255.8991L360.89374 255.8991L360.89374 255.8991C 363.97812 258.0009 364.7723 262.1971 362.6668 265.2741L362.6668 265.2741L362.6668 265.2741C 360.5687 268.35477 356.37247 269.14526 353.28812 267.04712L353.28812 267.04712L330.84055 251.75089L330.84055 251.75089L333.74393 267.09515L333.74393 267.09515L353.74985 280.73285L353.74985 280.73285L353.74985 280.73285C 356.8305 282.831 357.6247 287.0272 355.5229 290.10785L355.5229 290.10785L355.5229 290.10785C 353.42477 293.18484 349.22116 293.98273 346.1442 291.88092L346.1442 291.88092L337.29373 285.84885L337.29373 285.84885L339.85727 299.41266L339.85727 299.41266L339.85727 299.41266C 340.5517 303.07697 338.1433 306.6046 334.479 307.29907L334.479 307.29907L334.479 307.29907C 330.8184 307.9861 327.2834 305.5851 326.59262 301.9245L326.59262 301.9245L323.99954 288.24246L323.99954 288.24246L317.87143 297.22592L317.87143 297.22592L317.87143 297.22592C 315.77335 300.30292 311.56973 301.09708 308.49274 298.99896L308.49274 298.99896L308.49274 298.99896C 305.41208 296.89716 304.6142 292.70093 306.716 289.62027L306.716 289.62027L320.44974 269.48508L320.44974 269.48508L317.57224 254.25902L317.57224 254.25902L302.26492 276.69177L302.26492 276.69177L302.26492 276.69177C 300.1668 279.77246 295.9669 280.56293 292.88254 278.46484L292.88254 278.46484L292.88254 278.46484C 289.80554 276.36304 289.00766 272.17053 291.10947 269.08612L291.10947 269.08612L314.02615 235.50531L314.02615 235.50531L309.79297 213.14273L309.79297 213.14273L284.10593 232.01093L284.10593 232.01093L284.10593 232.01093C 282.3218 233.31857 280.01685 233.67316 277.92612 232.96027L277.92612 232.96027L277.92612 232.96027C 275.8354 232.24365 274.22488 230.55185 273.6154 228.43158L273.6154 228.43158L264.4805 196.58319L264.4805 196.58319L246.72412 211.39185L246.72412 211.39185L243.06723 251.88017L243.06723 251.88017L243.06723 251.88017C 242.73846 255.5888 239.46571 258.32965 235.73862 257.9935L235.73862 257.9935L235.73862 257.9935C 232.02629 257.65735 229.28545 254.38092 229.62158 250.6649L229.62158 250.6649L232.06323 223.6222L232.06323 223.6222L220.15424 233.55127L220.15424 233.55127L217.96379 257.82727L217.96379 257.82727L217.96379 257.82727C 217.63135 261.5359 214.3512 264.28046 210.63148 263.9406L210.63148 263.9406L210.63148 263.9406C 206.91917 263.60446 204.17833 260.32434 204.51447 256.612L204.51447 256.612L205.49333 245.78531L205.49333 245.78531L194.79594 254.70598L194.79594 254.70598L194.79594 254.70598C 191.9369 257.0922 187.67789 256.71173 185.28796 253.849L185.28796 253.849L185.28796 253.849C 182.89804 250.98627 183.2822 246.73094 186.14493 244.34102L186.14493 244.34102L196.74629 235.49792L196.74629 235.49792L186.08214 234.53754L186.08214 234.53754L186.08214 234.53754C 182.36981 234.20139 179.62898 230.92496 179.96512 227.21262L179.96512 227.21262L179.96512 227.21262C 180.28279 223.70346 183.2231 221.06973 186.68054 221.06973L186.68054 221.06973L186.68054 221.06973C 186.88371 221.06973 187.08687 221.08081 187.29372 221.09561L187.29372 221.09561L211.41089 223.26758L211.41089 223.26758L223.40852 213.26462L223.40852 213.26462L196.35106 210.82669L196.35106 210.82669L196.35106 210.82669C 192.63504 210.49054 189.89789 207.21042 190.22664 203.49808L190.22664 203.49808L190.22664 203.49808C 190.54431 199.99261 193.492 197.3552 196.94576 197.3552L196.94576 197.3552L196.94576 197.3552C 197.14893 197.3552 197.35208 197.36627 197.56264 197.38477L197.56264 197.38477L238.06943 201.03427L238.06943 201.03427L255.27539 186.67996L255.27539 186.67996L227.01743 174.79684L227.01743 174.79684L227.01743 174.79684C 224.95625 173.93246 223.46024 172.10034 223.01698 169.90988L223.01698 169.90988L223.01698 169.90988C 222.57741 167.71942 223.2497 165.45508 224.81589 163.85565L224.81589 163.85565L246.94208 141.29358L246.94208 141.29358L225.4106 134.12381L225.4106 134.12381L189.03352 152.30127L189.03352 152.30127L189.03352 152.30127C 185.69429 153.97089 181.64212 152.61896 179.9725 149.28708L179.9725 149.28708L179.9725 149.28708C 178.30289 145.95523 179.65483 141.89938 182.99039 140.23346L182.99039 140.23346L207.29225 128.08807L207.29225 128.08807L192.46881 123.14938L192.46881 123.14938L170.81175 133.97238L170.81175 133.97238L170.81175 133.97238C 167.4725 135.6383 163.41666 134.29004 161.75073 130.95819L161.75073 130.95819L161.75073 130.95819C 160.0811 127.62265 161.43306 123.570496 164.7686 121.90454L164.7686 121.90454L174.34677 117.11362L174.34677 117.11362L161.24467 112.75119L161.24467 112.75119L161.24467 112.75119C 157.70966 111.57654 155.79623 107.75339 156.97458 104.21469L156.97458 104.21469L156.97458 104.21469C 157.9202 101.388885 160.55392 99.59738 163.37971 99.59738L163.37971 99.59738L163.37971 99.59738C 164.08894 99.59738 164.80554 99.71188 165.51846 99.951996L165.51846 99.951996L178.73137 104.34766L178.73137 104.34766L173.86656 94.62546L173.86656 94.62546L173.86656 94.62546C 172.19695 91.29358 173.54889 87.241425 176.88445 85.57181L176.88445 85.57181L176.88445 85.57181C 177.85223 85.08792 178.88652 84.86258 179.90233 84.86258L179.90233 84.86258L179.90233 84.86258C 182.3772 84.86258 184.75974 86.22562 185.94547 88.58969L185.94547 88.58969L196.84602 110.38342L196.84602 110.38342L211.56235 115.28516L211.56235 115.28516L199.40956 91.00177L199.40956 91.00177L199.40956 91.00177C 197.73994 87.66623 199.09189 83.614075 202.42744 81.94815L202.42744 81.94815L202.42744 81.94815C 203.39523 81.46423 204.4295 81.23154 205.44531 81.23154L205.44531 81.23154L205.44531 81.23154C 207.9202 81.23154 210.30273 82.59827 211.48846 84.96234L211.48846 84.96234L229.677 121.31723L229.677 121.31723L251.6222 128.62738L251.6222 128.62738L248.4898 95.64496L248.4898 95.64496L248.4898 95.64496C 248.28293 93.44711 249.16208 91.286194 250.84647 89.86038L250.84647 89.86038L250.84647 89.86038C 252.08392 88.815 253.63535 88.260925 255.21262 88.260925L255.21262 88.260925L255.21262 88.260925C 255.79254 88.260925 256.37247 88.33481 256.94873 88.48627L256.94873 88.48627L287.75546 96.67554L287.75546 96.67554L283.5223 74.31296L283.5223 74.31296L249.91931 51.41107L249.91931 51.41107L249.91931 51.41107C 246.84235 49.309265 246.04446 45.113037 248.14627 42.03607L248.14627 42.03607L248.14627 42.03607C 250.24808 38.955383 254.44797 38.161194 257.53235 40.259308L257.53235 40.259308L279.9725 55.559265L279.9725 55.559265L277.095 40.33319L277.095 40.33319L256.94873 26.60315L256.94873 26.60315L256.94873 26.60315C 253.86804 24.501343 253.07385 20.301422 255.17566 17.224457L255.17566 17.224457L255.17566 17.224457C 257.27747 14.147461 261.4774 13.3532715 264.55804 15.4513855L264.55804 15.4513855L273.5452 21.575806L273.5452 21.575806L270.9558 7.9011536L270.9558 7.9011536L270.9558 7.9011536C 270.26505 4.236847 272.67346 0.7092285 276.33405 0.014770508L276.33405 0.014770508L276.33405 0.014770508C 276.76254 -0.0664978 277.18365 -0.10342407 277.59735 -0.10342407L277.59735 -0.10342407L277.59735 -0.10342407C 280.77777 -0.10342407 283.61465 2.153534 284.2278 5.3893433L284.2278 5.3893433L286.79504 18.953156L286.79504 18.953156L292.82712 10.110077L292.82712 10.110077L292.82712 10.110077C 294.13474 8.192963 296.255 7.162384 298.41223 7.162384L298.41223 7.162384L298.41223 7.162384C 299.72354 7.162384 301.04593 7.5428467 302.2095 8.337036L302.2095 8.337036L302.2095 8.337036C 305.29016 10.43515 306.08435 14.63504 303.98624 17.712036L303.98624 17.712036L290.34116 37.70685L290.34116 37.70685L293.2445 53.051117L293.2445 53.051117L308.54816 30.618347L308.54816 30.618347L308.54816 30.618347C 309.85577 28.704926 311.97604 27.674347 314.13696 27.674347L314.13696 27.674347L314.13696 27.674347C 315.44458 27.674347 316.77066 28.051117 317.93423 28.845306L317.93423 28.845306L317.93423 28.845306C 321.01492 30.947113 321.80908 35.14334 319.70358 38.224L319.70358 38.224L296.7943 71.80481L296.7943 71.80481L301.02008 94.17111L301.02008 94.17111L326.71085 75.30289L326.71085 75.30289L326.71085 75.30289C 327.88547 74.43854 329.28915 73.99158 330.71127 73.99158L330.71127 73.99158L330.71127 73.99158C 331.44266 73.99158 332.18143 74.10977 332.89435 74.35358L332.89435 74.35358L332.89435 74.35358C 334.98138 75.062805 336.5919 76.75458 337.2014 78.88223L337.2014 78.88223L346.33997 110.72696L346.33997 110.72696L364.0963 95.918304L364.0963 95.918304L367.74585 55.429962L367.74585 55.429962L367.74585 55.429962C 368.0635 51.928192 371.0038 49.29077 374.46127 49.29077L374.46127 49.29077L374.46127 49.29077C 374.66443 49.29077 374.8713 49.298187 375.07446 49.31665L375.07446 49.31665L375.07446 49.31665C 378.79047 49.65277 381.52762 52.932922 381.19516 56.645233L381.19516 56.645233L378.75723 83.68796L378.75723 83.68796L390.6625 73.75888L390.6625 73.75888L392.84927 49.486572L392.84927 49.486572L392.84927 49.486572C 393.16696 45.98108 396.11465 43.34369 399.5684 43.34369L399.5684 43.34369L399.5684 43.34369C 399.76785 43.34369 399.97473 43.354767 400.18158 43.37323L400.18158 43.37323L400.18158 43.37323C 403.89758 43.70938 406.63104 46.989502 406.29858 50.701843L406.29858 50.701843L405.32343 61.528534L405.32343 61.528534L416.01712 52.60788L416.01712 52.60788L416.01712 52.60788C 417.28043 51.551422 418.81708 51.041656 420.33893 51.041656L420.33893 51.041656L420.33893 51.041656C 422.2745 51.041656 424.1953 51.865387 425.52512 53.46115L425.52512 53.46115L425.52512 53.46115C 427.91873 56.327576 427.53455 60.579193 424.6718 62.965424L424.6718 62.965424L414.06677 71.81592L414.06677 71.81592L424.73462 72.776306L424.73462 72.776306L424.73462 72.776306C 428.44693 73.11246 431.18777 76.388885 430.85535 80.097534L430.85535 80.097534L430.85535 80.097534C 430.5192 83.809845 427.25012 86.55069 423.52304 86.210846L423.52304 86.210846L399.40955 84.03885L399.40955 84.03885L387.40454 94.049194L387.40454 94.049194L414.4694 96.490845L414.4694 96.490845L414.4694 96.490845C 418.18173 96.8233 420.92258 100.103424 420.58643 103.815765L420.58643 103.815765L420.58643 103.815765C 420.25027 107.52438 416.98492 110.26892 413.25412 109.92908L413.25412 109.92908L372.74362 106.27954L372.74362 106.27954L355.32343 120.81119L355.32343 120.81119L384.16135 133.73965L384.16135 133.73965L384.16135 133.73965C 386.20035 134.65942 387.65573 136.52112 388.04727 138.71896L388.04727 138.71896L388.04727 138.71896C 388.4388 140.9242 387.71112 143.17377 386.1117 144.73257L386.1117 144.73257L364.14804 166.1052L364.14804 166.1052L385.40616 173.19L385.40616 173.19L421.78693 155.00888L421.78693 155.00888L421.78693 155.00888C 422.7547 154.52496 423.78162 154.29596 424.80112 154.29596L424.80112 154.29596L424.80112 154.29596C 427.2723 154.29596 429.66223 155.66269 430.84055 158.02673L430.84055 158.02673L430.84055 158.02673C 432.5102 161.35861 431.15823 165.41077 427.8264 167.08038L427.8264 167.08038L403.5245 179.22208L403.5245 179.22208L418.35165 184.16077L418.35165 184.16077L440.0087 173.33777L440.0087 173.33777L440.0087 173.33777C 440.9765 172.85388 442.00708 172.62115 443.0229 172.62115L443.0229 172.62115L443.0229 172.62115C 445.50146 172.62115 447.884 173.99158 449.06604 176.35196L449.06604 176.35196L449.06604 176.35196C 450.73196 179.6838 449.38 183.73965 446.04816 185.40927L446.04816 185.40927L436.4663 190.1965L436.4663 190.1965L449.5684 194.55896L449.5684 194.55896L449.5684 194.55896C 453.1108 195.7373 455.02054 199.55673 453.8422 203.09546M347.96527 203.29123L347.96527 203.29123L347.96527 203.29123L345.1838 174.01743L345.1838 174.01743L314.17758 163.68942L314.17758 163.68942L320.27985 195.92569zM283.92493 215.3923L283.92493 215.3923L283.92493 215.3923L307.0115 198.4338L307.0115 198.4338L300.90927 166.19754L300.90927 166.19754L275.81693 187.12692zM241.41237 166.21234L241.41237 166.21234L241.41237 166.21234L266.94427 176.95035L266.94427 176.95035L291.78177 156.23154L291.78177 156.23154L261.19296 146.04019zM262.8515 104.02261L262.8515 104.02261L262.8515 104.02261L265.62927 133.2927L265.62927 133.2927L296.63547 143.62442L296.63547 143.62442L290.54062 111.38077zM326.89185 91.914154L326.89185 91.914154L326.89185 91.914154L303.80893 108.87634L303.80893 108.87634L309.9075 141.11627L309.9075 141.11627L334.99985 120.18692zM369.57062 141.98804L369.57062 141.98804L369.57062 141.98804L343.7912 130.42996L343.7912 130.42996L319.0313 151.07861L319.0313 151.07861L349.72723 161.30319z" stroke="#FFFFFF" stroke-width="1.2608353" fill="#FFFFFF" fill-rule="nonzero" />
		</g>
    <path id=""  transform="matrix(1 0 0 -1 0 500)"  d="M221.52097 307.24365L221.52097 307.24365L221.52097 307.24365L213.35387 310.13965L213.35387 310.13965L219.10889 312.88046L219.10889 312.88046L219.10889 312.88046C 221.91621 314.21393 223.10194 317.56796 221.76846 320.37158L221.76846 320.37158L221.76846 320.37158C 220.43498 323.17523 217.07356 324.36835 214.26993 323.0312L214.26993 323.0312L198.35312 315.45508L198.35312 315.45508L189.17389 318.70935L189.17389 318.70935L205.90704 326.67334L205.90704 326.67334L205.90704 326.67334C 208.71068 328.0105 209.9001 331.36823 208.56293 334.16815L208.56293 334.16815L208.56293 334.16815C 207.22945 336.97546 203.86804 338.16492 201.0681 336.83142L201.0681 336.83142L174.17316 324.02484L174.17316 324.02484L159.57874 329.19623L159.57874 329.19623L175.51402 344.836L175.51402 344.836L175.51402 344.836C 176.84012 346.14362 177.43852 348.02008 177.10608 349.85223L177.10608 349.85223L177.10608 349.85223C 176.77364 351.6844 175.55466 353.23584 173.85179 353.98938L173.85179 353.98938L154.10075 362.74377L154.10075 362.74377L165.99127 372.2813L165.99127 372.2813L195.6012 369.04553L195.6012 369.04553L195.6012 369.04553C 195.81175 369.01965 196.0186 369.00858 196.22546 369.00858L196.22546 369.00858L196.22546 369.00858C 199.05495 369.00858 201.4966 371.14362 201.81056 374.02112L201.81056 374.02112L201.81056 374.02112C 202.14671 377.1055 199.91931 379.88327 196.83125 380.2231L196.83125 380.2231L178.40262 382.23996L178.40262 382.23996L186.00087 388.3348L186.00087 388.3348L203.52452 386.4177L203.52452 386.4177L203.52452 386.4177C 203.73137 386.39554 203.93823 386.38446 204.14139 386.38446L204.14139 386.38446L204.14139 386.38446C 206.97827 386.38446 209.41621 388.5158 209.7302 391.39703L209.7302 391.39703L209.7302 391.39703C 210.07002 394.48138 207.83524 397.25916 204.74718 397.5953L204.74718 397.5953L198.41222 398.28973L198.41222 398.28973L205.16827 403.71234L205.16827 403.71234L205.16827 403.71234C 207.59145 405.659 207.9756 409.1977 206.03633 411.6172L206.03633 411.6172L206.03633 411.6172C 204.08968 414.04034 200.54727 414.4245 198.1241 412.48154L198.1241 412.48154L191.29787 407.00723L191.29787 407.00723L192.00708 413.4641L192.00708 413.4641L192.00708 413.4641C 192.34322 416.54846 190.11583 419.32623 187.02408 419.66608L187.02408 419.66608L187.02408 419.66608C 183.93231 419.99854 181.15823 417.77484 180.8221 414.68677L180.8221 414.68677L178.88652 397.0486L178.88652 397.0486L171.35844 391.00916L171.35844 391.00916L173.37529 409.42303L173.37529 409.42303L173.37529 409.42303C 173.71143 412.51108 171.48402 415.28516 168.39597 415.625L168.39597 415.625L168.39597 415.625C 165.30052 415.95007 162.52274 413.73376 162.1866 410.6457L162.1866 410.6457L158.9471 381.05054L158.9471 381.05054L146.58746 371.13992L146.58746 371.13992L140.54062 393.84973L140.54062 393.84973L140.54062 393.84973C 140.06781 395.62646 138.75279 397.0597 137.02039 397.68765L137.02039 397.68765L137.02039 397.68765C 135.29166 398.3193 133.36346 398.05704 131.85637 396.9969L131.85637 396.9969L113.442505 384.00192L113.442505 384.00192L110.84573 399.33142L110.84573 399.33142L128.09233 423.60004L128.09233 423.60004L128.09233 423.60004C 129.89494 426.1303 129.29652 429.6432 126.76254 431.4384L126.76254 431.4384L126.76254 431.4384C 124.232254 433.2373 120.719406 432.64258 118.9205 430.1123L118.9205 430.1123L108.18616 415.00812L108.18616 415.00812L106.56087 424.60846L106.56087 424.60846L116.76698 438.97015L116.76698 438.97015L116.76698 438.97015C 118.56958 441.50415 117.971176 445.0133 115.437195 446.8085L115.437195 446.8085L115.437195 446.8085C 112.90321 448.6111 109.39035 448.0164 107.591446 445.4861L107.591446 445.4861L103.8976 440.28885L103.8976 440.28885L102.45329 448.82904L102.45329 448.82904L102.45329 448.82904C 101.932465 451.88757 99.025406 453.95242 95.963196 453.43158L95.963196 453.43158L95.963196 453.43158C 92.900986 452.91446 90.83981 450.01477 91.356964 446.95258L91.356964 446.95258L92.81973 438.32742L92.81973 438.32742L87.522736 442.08408L87.522736 442.08408L87.522736 442.08408C 84.988754 443.883 81.47591 443.29196 79.677 440.758L79.677 440.758L79.677 440.758C 77.87439 438.224 78.4691 434.71115 81.00308 432.91592L81.00308 432.91592L95.4756 422.6433L95.4756 422.6433L97.08981 413.13165L97.08981 413.13165L81.97827 423.85858L81.97827 423.85858L81.97827 423.85858C 79.44798 425.6538 75.93143 425.0591 74.136215 422.5288L74.136215 422.5288L74.136215 422.5288C 72.33362 419.99854 72.92833 416.48566 75.46231 414.69046L75.46231 414.69046L99.74939 397.44754L99.74939 397.44754L102.346176 382.12177L102.346176 382.12177L80.67433 388.33112L80.67433 388.33112L80.67433 388.33112C 78.908676 388.83716 76.99895 388.44562 75.56943 387.28207L75.56943 387.28207L75.56943 387.28207C 74.1436 386.1222 73.375275 384.33435 73.51195 382.50223L73.51195 382.50223L75.29239 359.0647L75.29239 359.0647L60.35445 364.35803L60.35445 364.35803L47.54047 391.2345L47.54047 391.2345L47.54047 391.2345C 46.203297 394.03812 42.845585 395.23123 40.04195 393.89038L40.04195 393.89038L40.04195 393.89038C 37.23831 392.5569 36.0452 389.19916 37.382374 386.39554L37.382374 386.39554L45.357403 369.67346L45.357403 369.67346L36.25575 372.8982L36.25575 372.8982L28.620552 388.91473L28.620552 388.91473L28.620552 388.91473C 27.283379 391.7147 23.925667 392.9115 21.118336 391.57062L21.118336 391.57062L21.118336 391.57062C 18.311008 390.23715 17.125282 386.87943 18.462456 384.0795L18.462456 384.0795L21.255009 378.21365L21.255009 378.21365L13.002941 381.1392L13.002941 381.1392L13.002941 381.1392C 10.073715 382.17346 6.8600636 380.6405 5.82209 377.71497L5.82209 377.71497L5.82209 377.71497C 4.780424 374.78946 6.317066 371.5758 9.2425995 370.53784L9.2425995 370.53784L17.409708 367.64185L17.409708 367.64185L11.654686 364.9047L11.654686 364.9047L11.654686 364.9047C 8.851049 363.5675 7.6616287 360.2135 8.998804 357.4062L8.998804 357.4062L8.998804 357.4062C 9.959206 355.38562 11.976049 354.1999 14.077852 354.1999L14.077852 354.1999L14.077852 354.1999C 14.890501 354.1999 15.717924 354.3772 16.493633 354.7503L16.493633 354.7503L32.410446 362.33008L32.410446 362.33008L41.59337 359.0758L41.59337 359.0758L24.86021 351.10815L24.86021 351.10815L24.86021 351.10815C 22.056576 349.771 20.86346 346.41696 22.200638 343.60962L22.200638 343.60962L22.200638 343.60962C 23.168427 341.5891 25.185268 340.40338 27.287071 340.40338L27.287071 340.40338L27.287071 340.40338C 28.096027 340.40338 28.919754 340.5807 29.702854 340.95374L29.702854 340.95374L56.594105 353.76035L56.594105 353.76035L70.96689 348.6665L70.96689 348.6665L55.20152 333.8985L55.20152 333.8985L55.20152 333.8985C 53.842182 332.6278 53.19945 330.75873 53.49127 328.92285L53.49127 328.92285L53.49127 328.92285C 53.779392 327.0833 54.961422 325.50604 56.64951 324.7082L56.64951 324.7082L76.8475 315.18542L76.8475 315.18542L64.77229 305.50015L64.77229 305.50015L35.16237 308.73965L35.16237 308.73965L35.16237 308.73965C 32.074306 309.06842 29.296528 306.84473 28.956696 303.76035L28.956696 303.76035L28.956696 303.76035C 28.620552 300.6723 30.847946 297.8945 33.9397 297.5547L33.9397 297.5547L52.364643 295.54523L52.364643 295.54523L44.766388 289.44666L44.766388 289.44666L27.242744 291.36377L27.242744 291.36377L27.242744 291.36377C 24.154686 291.68512 21.373215 289.47253 21.037071 286.38446L21.037071 286.38446L21.037071 286.38446C 20.700932 283.3001 22.928326 280.5223 26.016388 280.18616L26.016388 280.18616L32.355038 279.48804L32.355038 279.48804L25.59898 274.07285L25.59898 274.07285L25.59898 274.07285C 23.175816 272.1262 22.78796 268.58746 24.730927 266.1643L24.730927 266.1643L24.730927 266.1643C 25.842777 264.7828 27.47546 264.0588 29.122917 264.0588L29.122917 264.0588L29.122917 264.0588C 30.36036 264.0588 31.605186 264.46515 32.639465 265.29993L32.639465 265.29993L39.469402 270.77423L39.469402 270.77423L38.76018 264.31738L38.76018 264.31738L38.76018 264.31738C 38.420345 261.23303 40.65513 258.45523 43.74319 258.11542L43.74319 258.11542L43.74319 258.11542C 43.950047 258.09692 44.156902 258.08215 44.363758 258.08215L44.363758 258.08215L44.363758 258.08215C 47.19325 258.08215 49.63119 260.2172 49.948864 263.09473L49.948864 263.09473L51.88075 280.73285L51.88075 280.73285L59.408825 286.776L59.408825 286.776L57.39198 268.35846L57.39198 268.35846L57.39198 268.35846C 57.055836 265.2704 59.286922 262.4926 62.37499 262.1565L62.37499 262.1565L62.37499 262.1565C 62.581844 262.1343 62.7887 262.12323 62.991863 262.12323L62.991863 262.12323L62.991863 262.12323C 65.82504 262.12323 68.262985 264.25458 68.58066 267.1358L68.58066 267.1358L71.820175 296.73096L71.820175 296.73096L84.1761 306.64154L84.1761 306.64154L90.222946 283.93176L90.222946 283.93176L90.222946 283.93176C 90.69945 282.155 92.014465 280.71808 93.743195 280.09015L93.743195 280.09015L93.743195 280.09015C 94.36745 279.8648 95.01387 279.754 95.66399 279.754L95.66399 279.754L95.66399 279.754C 96.80908 279.754 97.9431 280.10858 98.907196 280.78458L98.907196 280.78458L117.32475 293.77954L117.32475 293.77954L119.92154 278.45374L119.92154 278.45374L102.671234 254.18144L102.671234 254.18144L102.671234 254.18144C 100.86864 251.65115 101.46704 248.1383 104.00102 246.3431L104.00102 246.3431L104.00102 246.3431C 104.99097 245.63756 106.12868 245.30142 107.25162 245.30142L107.25162 245.30142L107.25162 245.30142C 109.01358 245.30142 110.749695 246.12515 111.84677 247.66917L111.84677 247.66917L122.57741 262.77335L122.57741 262.77335L124.19162 253.25798L124.19162 253.25798L113.91162 238.79285L113.91162 238.79285L113.91162 238.79285C 112.11272 236.25888 112.70743 232.75339 115.241425 230.9545L115.241425 230.9545L115.241425 230.9545C 116.23137 230.25266 117.36908 229.91653 118.492004 229.91653L118.492004 229.91653L118.492004 229.91653C 120.257675 229.91653 121.99379 230.74026 123.08716 232.28427L123.08716 232.28427L126.8512 237.58127L126.8512 237.58127L128.31396 228.95242L128.31396 228.95242L128.31396 228.95242C 128.7757 226.20789 131.16193 224.26862 133.85475 224.26862L133.85475 224.26862L133.85475 224.26862C 134.16873 224.26862 134.4827 224.29446 134.80037 224.34619L134.80037 224.34619L134.80037 224.34619C 137.86627 224.86334 139.92744 227.7667 139.41031 230.82892L139.41031 230.82892L137.96231 239.36908L137.96231 239.36908L143.15587 235.68262L143.15587 235.68262L143.15587 235.68262C 145.68985 233.88373 149.20271 234.47842 151.00531 237.00873L151.00531 237.00873L151.00531 237.00873C 152.80421 239.539 152.2095 243.05185 149.67552 244.85077L149.67552 244.85077L135.29904 255.05319L135.29904 255.05319L133.67375 264.6535L133.67375 264.6535L148.78531 253.92288L148.78531 253.92288L148.78531 253.92288C 151.31929 252.12766 154.83214 252.71867 156.63474 255.25636L156.63474 255.25636L156.63474 255.25636C 158.43364 257.78665 157.83894 261.2958 155.30495 263.091L155.30495 263.091L131.01787 280.33392L131.01787 280.33392L128.41739 295.65604L128.41739 295.65604L150.08923 289.45038L150.08923 289.45038L150.08923 289.45038C 150.59898 289.3026 151.1235 289.23242 151.63696 289.23242L151.63696 289.23242L151.63696 289.23242C 152.92242 289.23242 154.17833 289.66827 155.19414 290.4994L155.19414 290.4994L155.19414 290.4994C 156.62366 291.6593 157.38829 293.4471 157.25162 295.28296L157.25162 295.28296L155.47487 318.71674L155.47487 318.71674L170.41281 313.42346L170.41281 313.42346L183.2231 286.547L183.2231 286.547L183.2231 286.547C 184.19089 284.52643 186.20773 283.34073 188.30954 283.34073L188.30954 283.34073L188.30954 283.34073C 189.11848 283.34073 189.94221 283.51804 190.72531 283.88742L190.72531 283.88742L190.72531 283.88742C 193.53264 285.2246 194.71837 288.5786 193.3812 291.38226L193.3812 291.38226L185.40985 308.10803L185.40985 308.10803L194.51152 304.87958L194.51152 304.87958L202.14671 288.86304L202.14671 288.86304L202.14671 288.86304C 203.11081 286.8425 205.12766 285.66046 207.22945 285.66046L207.22945 285.66046L207.22945 285.66046C 208.0421 285.66046 208.86583 285.83777 209.64523 286.20715L209.64523 286.20715L209.64523 286.20715C 212.45256 287.5443 213.64198 290.89835 212.30481 293.7057L212.30481 293.7057L209.50856 299.5678L209.50856 299.5678L217.76062 296.64227L217.76062 296.64227L217.76062 296.64227C 218.38489 296.42435 219.02023 296.31723 219.6408 296.31723L219.6408 296.31723L219.6408 296.31723C 221.95685 296.31723 224.12883 297.75415 224.94518 300.0628L224.94518 300.0628L224.94518 300.0628C 225.98314 302.98834 224.45389 306.2057 221.52097 307.24365M147.77689 333.37766L147.77689 333.37766L147.77689 333.37766L126.77733 340.82077L126.77733 340.82077L144.22339 354.81677L144.22339 354.81677L161.72118 347.0634zM131.74925 383.14865L131.74925 383.14865L131.74925 383.14865L136.99452 363.43823L136.99452 363.43823L119.33052 349.26862L119.33052 349.26862L115.52585 371.70877zM85.34337 375.2955L85.34337 375.2955L85.34337 375.2955L104.429504 369.8286L104.429504 369.8286L108.23787 347.38843L108.23787 347.38843L86.88739 354.95346zM82.90173 344.43335L82.90173 344.43335L82.90173 344.43335L103.989944 336.9607L103.989944 336.9607L86.61035 323.02008L86.61035 323.02008L68.93527 331.35342zM99.0217 294.62915L99.0217 294.62915L99.0217 294.62915L93.772736 314.34323L93.772736 314.34323L111.43306 328.51288L111.43306 328.51288L115.23773 306.0764zM145.4202 302.48596L145.4202 302.48596L145.4202 302.48596L126.33406 307.95288L126.33406 307.95288L122.53308 330.393L122.53308 330.393L143.87987 322.82434z" stroke="#FFFFFF" stroke-width="1.2608353" fill="#FFFFFF" fill-rule="nonzero" />
    <path id=""  transform="matrix(1 0 0 -1 0 500)"  d="M453.9973 383.5402L453.9973 383.5402L453.9973 383.5402L446.6909 385.01404L446.6909 385.01404L451.20847 388.01346L451.20847 388.01346L451.20847 388.01346C 453.54297 389.5575 454.1783 392.70093 452.6306 395.02808L452.6306 395.02808L452.6306 395.02808C 451.0829 397.3552 447.9394 397.99054 445.61227 396.4465L445.61227 396.4465L432.65054 387.85092L432.65054 387.85092L424.4539 389.50577L424.4539 389.50577L437.93277 398.44858L437.93277 398.44858L437.93277 398.44858C 440.26358 399.9926 440.89893 403.13608 439.3512 405.4632L439.3512 405.4632L439.3512 405.4632C 437.80347 407.79034 434.6563 408.422 432.3329 406.88165L432.3329 406.88165L410.41724 392.34265L410.41724 392.34265L397.17108 395.017L397.17108 395.017L409.08377 410.5829L409.08377 410.5829L409.08377 410.5829C 410.10327 411.91638 410.39508 413.65988 409.87054 415.25192L409.87054 415.25192L409.87054 415.25192C 409.33865 416.84027 408.0569 418.06665 406.44266 418.52466L406.44266 418.52466L388.19873 423.69238L388.19873 423.69238L397.29297 433.38873L397.29297 433.38873L423.58954 434.23834L423.58954 434.23834L423.58954 434.23834C 426.38208 434.33435 428.57623 436.66888 428.4839 439.46143L428.4839 439.46143L428.4839 439.46143C 428.39523 442.20227 426.14935 444.3595 423.427 444.3595L423.427 444.3595L423.427 444.3595C 423.3679 444.3595 423.3162 444.3595 423.26077 444.3558L423.26077 444.3558L407.08908 443.83496L407.08908 443.83496L412.80716 449.9335L412.80716 449.9335L428.3509 450.43588L428.3509 450.43588L428.3509 450.43588C 431.15085 450.52823 433.345 452.86642 433.24896 455.659L433.24896 455.659L433.24896 455.659C 433.1603 458.45523 430.79623 460.63092 428.02585 460.55334L428.02585 460.55334L422.60327 460.37604L422.60327 460.37604L427.70078 465.8097L427.70078 465.8097L427.70078 465.8097C 429.6105 467.8487 429.51077 471.05127 427.46808 472.961L427.46808 472.961L427.46808 472.961C 425.42908 474.8781 422.2228 474.771 420.3094 472.73196L420.3094 472.73196L415.16385 467.24292L415.16385 467.24292L414.98654 472.7726L414.98654 472.7726L414.98654 472.7726C 414.8942 475.50977 412.64835 477.67065 409.92596 477.67065L409.92596 477.67065L409.92596 477.67065C 409.87054 477.67065 409.81516 477.66696 409.75974 477.66696L409.75974 477.66696L409.75974 477.66696C 406.9635 477.57462 404.77304 475.2401 404.8617 472.44385L404.8617 472.44385L405.37143 456.7967L405.37143 456.7967L399.7014 450.75723L399.7014 450.75723L399.18054 466.91415L399.18054 466.91415L399.18054 466.91415C 399.0845 469.7104 396.70935 471.89346 393.95374 471.8085L393.95374 471.8085L393.95374 471.8085C 391.1538 471.71616 388.96335 469.38165 389.0557 466.5891L389.0557 466.5891L389.90527 440.31104L389.90527 440.31104L380.44162 430.21942L380.44162 430.21942L372.36685 449.2243L372.36685 449.2243L372.36685 449.2243C 371.72043 450.74985 370.36478 451.8617 368.7432 452.20154L368.7432 452.20154L368.7432 452.20154C 367.12158 452.54138 365.4372 452.06854 364.233 450.92715L364.233 450.92715L349.83435 437.35596L349.83435 437.35596L345.70093 450.28442L345.70093 450.28442L357.75766 473.64435L357.75766 473.64435L357.75766 473.64435C 359.03943 476.12662 358.06427 479.18146 355.5783 480.4632L355.5783 480.4632L355.5783 480.4632C 353.09604 481.74866 350.0412 480.7661 348.75943 478.28384L348.75943 478.28384L341.3422 463.91473L341.3422 463.91473L338.79712 471.8787L338.79712 471.8787L345.92627 485.6937L345.92627 485.6937L345.92627 485.6937C 347.21173 488.17596 346.23285 491.2271 343.75058 492.50885L343.75058 492.50885L343.75058 492.50885C 341.26093 493.79062 338.2098 492.81915 336.92804 490.3332L336.92804 490.3332L334.44208 485.5127L334.44208 485.5127L332.17404 492.6086L332.17404 492.6086L332.17404 492.6086C 331.32077 495.2682 328.4728 496.73462 325.80585 495.88873L325.80585 495.88873L325.80585 495.88873C 323.14627 495.03915 321.67242 492.1875 322.5257 489.52792L322.5257 489.52792L324.8159 482.36185L324.8159 482.36185L319.89566 484.89584L319.89566 484.89584L319.89566 484.89584C 317.406 486.1776 314.35858 485.20612 313.0768 482.72015L313.0768 482.72015L313.0768 482.72015C 311.79504 480.2342 312.76654 477.18307 315.2525 475.905L315.2525 475.905L329.17093 468.72415L329.17093 468.72415L331.69754 460.83408L331.69754 460.83408L317.31735 468.24765L317.31735 468.24765L317.31735 468.24765C 314.8314 469.52942 311.77658 468.55054 310.4948 466.06827L310.4948 466.06827L310.4948 466.06827C 309.21304 463.586 310.19193 460.5312 312.6742 459.2531L312.6742 459.2531L336.05627 447.20007L336.05627 447.20007L340.1823 434.27527L340.1823 434.27527L320.57535 436.99396L320.57535 436.99396L320.57535 436.99396C 318.93158 437.21927 317.28412 436.63196 316.1612 435.41666L316.1612 435.41666L316.1612 435.41666C 315.03827 434.1977 314.58023 432.5096 314.9348 430.888L314.9348 430.888L319.38223 410.72696L319.38223 410.72696L305.8184 413.46777L305.8184 413.46777L291.26462 435.37234L291.26462 435.37234L291.26462 435.37234C 289.7169 437.69946 286.57712 438.3348 284.25 436.79077L284.25 436.79077L284.25 436.79077C 281.91916 435.24304 281.2838 432.10327 282.83154 429.77615L282.83154 429.77615L291.77805 416.30096L291.77805 416.30096L283.65158 417.94843L283.65158 417.94843L274.9895 430.98773L274.9895 430.98773L274.9895 430.98773C 273.44547 433.31488 270.302 433.9465 267.97116 432.40247L267.97116 432.40247L267.97116 432.40247C 265.64035 430.85846 265.0087 427.71497 266.55273 425.38785L266.55273 425.38785L269.61124 420.77792L269.61124 420.77792L262.2383 422.27023L262.2383 422.27023L262.2383 422.27023C 259.49747 422.8243 256.82312 421.05127 256.26904 418.31042L256.26904 418.31042L256.26904 418.31042C 255.71497 415.5733 257.488 412.90265 260.22885 412.34857L260.22885 412.34857L267.53162 410.871L267.53162 410.871L263.01035 407.8753L263.01035 407.8753L263.01035 407.8753C 260.6795 406.33127 260.04785 403.1878 261.59558 400.86066L261.59558 400.86066L261.59558 400.86066C 262.57077 399.3905 264.17758 398.60004 265.81766 398.60004L265.81766 398.60004L265.81766 398.60004C 266.78177 398.60004 267.75323 398.87338 268.6139 399.44223L268.6139 399.44223L281.56824 408.03784L281.56824 408.03784L289.76862 406.37927L289.76862 406.37927L276.29343 397.44385L276.29343 397.44385L276.29343 397.44385C 273.96262 395.89612 273.32727 392.75635 274.875 390.42554L274.875 390.42554L274.875 390.42554C 275.84647 388.95908 277.457 388.1612 279.09708 388.1612L279.09708 388.1612L279.09708 388.1612C 280.06116 388.1612 281.03265 388.43454 281.8933 389.0108L281.8933 389.0108L303.80893 403.54608L303.80893 403.54608L316.84454 400.91238L316.84454 400.91238L304.9762 386.13327L304.9762 386.13327L304.9762 386.13327C 303.93085 384.82935 303.5947 383.08585 304.08597 381.4864L304.08597 381.4864L304.08597 381.4864C 304.57727 379.87958 305.83316 378.62738 307.4363 378.13608L307.4363 378.13608L326.17154 372.3515L326.17154 372.3515L316.9295 362.4963L316.9295 362.4963L290.63666 361.64673L290.63666 361.64673L290.63666 361.64673C 287.84042 361.55807 285.64996 359.2162 285.73862 356.4236L285.73862 356.4236L285.73862 356.4236C 285.82727 353.63104 288.1913 351.46646 290.96542 351.52924L290.96542 351.52924L307.13342 352.05377L307.13342 352.05377L301.41162 345.95523L301.41162 345.95523L285.87158 345.44916L285.87158 345.44916L285.87158 345.44916C 283.07535 345.36053 280.8812 343.0223 280.96985 340.22977L280.96985 340.22977L280.96985 340.22977C 281.0622 337.48892 283.30804 335.3354 286.03412 335.3354L286.03412 335.3354L286.03412 335.3354C 286.08585 335.3354 286.14124 335.3354 286.19666 335.3354L286.19666 335.3354L291.61923 335.50903L291.61923 335.50903L286.5254 330.07538L286.5254 330.07538L286.5254 330.07538C 284.612 328.03635 284.71542 324.83746 286.75443 322.92407L286.75443 322.92407L286.75443 322.92407C 287.73328 322.008 288.97443 321.5573 290.21927 321.5573L290.21927 321.5573L290.21927 321.5573C 291.5675 321.5573 292.91577 322.09296 293.91312 323.15677L293.91312 323.15677L299.05865 328.64215L299.05865 328.64215L299.23965 323.1198L299.23965 323.1198L299.23965 323.1198C 299.3283 320.379 301.57785 318.2218 304.29654 318.2218L304.29654 318.2218L304.29654 318.2218C 304.35562 318.2218 304.41104 318.2218 304.46646 318.2218L304.46646 318.2218L304.46646 318.2218C 307.2627 318.31415 309.45316 320.65234 309.3645 323.44858L309.3645 323.44858L308.85843 339.08838L308.85843 339.08838L314.5248 345.1315L314.5248 345.1315L315.04565 328.9746L315.04565 328.9746L315.04565 328.9746C 315.1343 326.23743 317.38385 324.07654 320.10623 324.07654L320.10623 324.07654L320.10623 324.07654C 320.16162 324.07654 320.21704 324.08023 320.27243 324.08023L320.27243 324.08023L320.27243 324.08023C 323.0687 324.16888 325.25916 326.50708 325.1705 329.29965L325.1705 329.29965L324.32092 355.58142L324.32092 355.58142L333.78458 365.6693L333.78458 365.6693L341.85562 346.66077L341.85562 346.66077L341.85562 346.66077C 342.50574 345.1389 343.8577 344.02335 345.4793 343.68353L345.4793 343.68353L345.4793 343.68353C 345.82654 343.61334 346.17374 343.58008 346.51727 343.58008L346.51727 343.58008L346.51727 343.58008C 347.79535 343.58008 349.04388 344.06396 349.9932 344.9579L349.9932 344.9579L364.39185 358.5328L364.39185 358.5328L368.52524 345.60803L368.52524 345.60803L356.4648 322.2444L356.4648 322.2444L356.4648 322.2444C 355.18304 319.75842 356.15823 316.7073 358.6442 315.42554L358.6442 315.42554L358.6442 315.42554C 359.38666 315.04507 360.17715 314.86035 360.96024 314.86035L360.96024 314.86035L360.96024 314.86035C 362.79608 314.86035 364.56912 315.8614 365.46674 317.60492L365.46674 317.60492L372.8803 331.9703L372.8803 331.9703L375.4032 324.08392L375.4032 324.08392L368.22604 310.17285L368.22604 310.17285L368.22604 310.17285C 366.94058 307.6906 367.91946 304.6358 370.40173 303.354L370.40173 303.354L370.40173 303.354C 371.1479 302.96985 371.9384 302.78888 372.72147 302.78888L372.72147 302.78888L372.72147 302.78888C 374.55362 302.78888 376.32666 303.78992 377.22427 305.5334L377.22427 305.5334L379.76196 310.44623L379.76196 310.44623L382.05215 303.28384L382.05215 303.28384L382.05215 303.28384C 382.7392 301.1303 384.7339 299.7599 386.87262 299.7599L386.87262 299.7599L386.87262 299.7599C 387.3824 299.7599 387.9032 299.83746 388.41296 299.9963L388.41296 299.9963L388.41296 299.9963C 391.07993 300.8496 392.55008 303.69757 391.7005 306.36084L391.7005 306.36084L389.43616 313.453L389.43616 313.453L394.25293 310.96704L394.25293 310.96704L394.25293 310.96704C 396.7389 309.6853 399.79373 310.66046 401.0755 313.14642L401.0755 313.14642L401.0755 313.14642C 402.35727 315.6287 401.38208 318.6798 398.89612 319.96158L398.89612 319.96158L385.07742 327.08704L385.07742 327.08704L382.52866 335.05096L382.52866 335.05096L396.9088 327.6411L396.9088 327.6411L396.9088 327.6411C 399.39478 326.35565 402.44592 327.33453 403.72766 329.81677L403.72766 329.81677L403.72766 329.81677C 405.00943 332.30273 404.03796 335.35754 401.552 336.63562L401.552 336.63562L378.1699 348.685L378.1699 348.685L374.04388 361.6098L374.04388 361.6098L393.64716 358.8948L393.64716 358.8948L393.64716 358.8948C 393.87985 358.86523 394.11258 358.8468 394.34528 358.8468L394.34528 358.8468L394.34528 358.8468C 395.74158 358.8468 397.0972 359.4267 398.0613 360.47577L398.0613 360.47577L398.0613 360.47577C 399.18793 361.69476 399.64227 363.37915 399.28766 364.99704L399.28766 364.99704L394.84027 385.1618L394.84027 385.1618L408.41147 382.42096L408.41147 382.42096L422.9542 360.51642L422.9542 360.51642L422.9542 360.51642C 423.93304 359.04993 425.5399 358.25577 427.17996 358.25577L427.17996 358.25577L427.17996 358.25577C 428.14035 358.25577 429.11554 358.5291 429.9762 359.09796L429.9762 359.09796L429.9762 359.09796C 432.3033 360.642 432.94235 363.78546 431.39462 366.11627L431.39462 366.11627L422.44812 379.58408L422.44812 379.58408L430.57092 377.944L430.57092 377.944L439.233 364.9047L439.233 364.9047L439.233 364.9047C 440.20816 363.43454 441.8187 362.63666 443.45508 362.63666L443.45508 362.63666L443.45508 362.63666C 444.41547 362.64038 445.39435 362.91742 446.2513 363.48627L446.2513 363.48627L446.2513 363.48627C 448.58212 365.034 449.21747 368.17377 447.66977 370.5009L447.66977 370.5009L444.60754 375.10712L444.60754 375.10712L451.98788 373.6185L451.98788 373.6185L451.98788 373.6185C 452.3277 373.5483 452.66385 373.51877 452.99628 373.51877L452.99628 373.51877L452.99628 373.51877C 455.35666 373.51877 457.47324 375.1736 457.95712 377.57462L457.95712 377.57462L457.95712 377.57462C 458.5075 380.31915 456.73816 382.9861 453.9973 383.5402M386.12277 397.24808L386.12277 397.24808L386.12277 397.24808L367.01816 401.10815L367.01816 401.10815L380.4047 415.38123L380.4047 415.38123L396.51358 410.8193zM365.88785 438.5786L365.88785 438.5786L365.88785 438.5786L372.86554 422.14096L372.86554 422.14096L359.31647 407.6943L359.31647 407.6943L353.24747 426.66592zM326.39316 425.9715L326.39316 425.9715L326.39316 425.9715L343.6028 423.58527L343.6028 423.58527L349.66812 404.60992L349.66812 404.60992L330.23846 408.5365zM328.01846 398.65912L328.01846 398.65912L328.01846 398.65912L347.20435 394.78427L347.20435 394.78427L333.87692 380.56665L333.87692 380.56665L317.539 385.60876zM348.33835 357.31012L348.33835 357.31012L348.33835 357.31012L341.35696 373.74408L341.35696 373.74408L354.9097 388.19815L354.9097 388.19815L360.975 369.2228zM387.83304 369.92096L387.83304 369.92096L387.83304 369.92096L370.62335 372.3035L370.62335 372.3035L364.56174 391.27512L364.56174 391.27512L383.98773 387.35223z" stroke="#FFFFFF" stroke-width="1.2608353" fill="#FFFFFF" fill-rule="nonzero" />
		<g clip-path="url(#3)" >
    <path id=""  transform="matrix(1 0 0 -1 0 500)"  d="M348.9737 142.16534C 348.3642 138.95538 345.26874 136.84619 342.0588 137.452L342.0588 137.452L342.0588 137.452C 338.84515 138.05777 336.73596 141.15323 337.34543 144.3595L337.34543 144.3595L337.34543 144.3595C 337.95123 147.57315 341.0467 149.68234 344.2603 149.07285L344.2603 149.07285L344.2603 149.07285C 347.46658 148.46704 349.57947 145.37161 348.9737 142.16534M331.52023 185.66415C 328.30658 186.26996 325.21112 184.16077 324.60535 180.9545L324.60535 180.9545L324.60535 180.9545C 323.99585 177.74454 326.11243 174.64908 329.3187 174.0433L329.3187 174.0433L329.3187 174.0433C 332.53235 173.4338 335.6278 175.543 336.23358 178.75665L336.23358 178.75665L336.23358 178.75665C 336.8394 181.96292 334.7302 185.05469 331.52023 185.66415zM286.9539 188.06885C 286.3444 184.86258 288.45728 181.76346 291.66724 181.15765L291.66724 181.15765L291.66724 181.15765C 294.8809 180.55188 297.97635 182.66104 298.58215 185.871L298.58215 185.871L298.58215 185.871C 299.18793 189.08096 297.07874 192.17273 293.86877 192.78223L293.86877 192.78223L293.86877 192.78223C 290.65512 193.388 287.5597 191.27881 286.9539 188.06885zM323.74466 112.7475C 324.35416 115.953766 322.24127 119.049194 319.02762 119.65869L319.02762 119.65869L319.02762 119.65869C 315.82135 120.264496 312.7259 118.155304 312.11273 114.94165L312.11273 114.94165L312.11273 114.94165C 311.50693 111.73538 313.6198 108.643616 316.83347 108.03784L316.83347 108.03784L316.83347 108.03784C 320.03973 107.428345 323.1352 109.53754 323.74466 112.7475zM279.182 115.1485C 282.38828 114.542694 285.48373 116.65558 286.09323 119.86185L286.09323 119.86185L286.09323 119.86185C 286.699 123.07181 284.5898 126.16727 281.37616 126.76935L281.37616 126.76935L281.37616 126.76935C 278.1699 127.378845 275.07077 125.26596 274.46127 122.05969L274.46127 122.05969L274.46127 122.05969C 273.85547 118.84973 275.96835 115.7543 279.182 115.1485zM260.76816 158.832C 260.16238 155.62204 262.26785 152.5303 265.4815 151.9245L265.4815 151.9245L265.4815 151.9245C 268.69516 151.3187 271.79062 153.42789 272.39642 156.63416L272.39642 156.63416L272.39642 156.63416C 273.0022 159.84412 270.8893 162.93958 267.68304 163.54535L267.68304 163.54535L267.68304 163.54535C 264.4694 164.15485 261.37396 162.04565 260.76816 158.832zM408.24527 144.78058C 400.85016 146.17316 393.72104 141.31946 392.32843 133.92804L392.32843 133.92804L392.32843 133.92804C 390.92847 126.53665 395.78958 119.411194 403.181 118.01492L403.181 118.01492L403.181 118.01492C 410.57977 116.61865 417.70523 121.47238 419.1052 128.86377L419.1052 128.86377L419.1052 128.86377C 420.50516 136.25519 415.64035 143.38062 408.24527 144.78058zM374.46127 243.78323C 367.0699 245.17583 359.94073 240.32211 358.54077 232.9307L358.54077 232.9307L358.54077 232.9307C 357.1408 225.5393 362.0056 218.42126 369.4007 217.01758L369.4007 217.01758L369.4007 217.01758C 376.79578 215.6213 383.92123 220.48242 385.3175 227.87012L385.3175 227.87012L385.3175 227.87012C 386.71747 235.25784 381.86008 242.38327 374.46127 243.78323zM52.386806 42.918884C 46.919903 43.949463 41.648773 40.362732 40.614494 34.895844L40.614494 34.895844L40.614494 34.895844C 39.58391 29.432617 43.174335 24.165192 48.64124 23.13092L48.64124 23.13092L48.64124 23.13092C 54.111835 22.100342 59.37927 25.690765 60.413548 31.153961L60.413548 31.153961L60.413548 31.153961C 61.447826 36.617188 57.850018 41.884613 52.386806 42.918884zM36.42197 489.6498C 30.951374 490.68042 25.68394 487.0863 24.653355 481.62677L24.653355 481.62677L24.653355 481.62677C 23.615383 476.15988 27.213196 470.89612 32.676403 469.86185L32.676403 469.86185L32.676403 469.86185C 38.143307 468.83127 43.414436 472.418 44.448715 477.8849L44.448715 477.8849L44.448715 477.8849C 45.4793 483.3481 41.888874 488.61554 36.42197 489.6498zM491.98862 499.71558C 486.5217 500.74985 481.25058 497.16312 480.22 491.69623L480.22 491.69623L480.22 491.69623C 479.1857 486.233 482.77985 480.96558 488.24673 479.9313L488.24673 479.9313L488.24673 479.9313C 493.71362 478.9007 498.98105 482.49115 500.01535 487.95435L500.01535 487.95435L500.01535 487.95435C 501.0533 493.42123 497.4555 498.685 491.98862 499.71558zM491.98862 66.66666C 486.5217 67.70096 481.25058 64.10684 480.22 58.643616L480.22 58.643616L480.22 58.643616C 479.1857 53.176727 482.77985 47.912964 488.24673 46.878693L488.24673 46.878693L488.24673 46.878693C 493.71362 45.84442 498.98105 49.434845 500.01535 54.901733L500.01535 54.901733L500.01535 54.901733C 501.0533 60.36496 497.4555 65.62869 491.98862 66.66666zM460.36185 293.28458C 454.89124 294.31516 449.6238 290.72473 448.58585 285.2578L448.58585 285.2578L448.58585 285.2578C 447.55524 279.79462 451.15305 274.5272 456.61627 273.49658L456.61627 273.49658L456.61627 273.49658C 462.08316 272.46234 467.3543 276.05273 468.38858 281.51596L468.38858 281.51596L468.38858 281.51596C 469.41916 286.98285 465.82874 292.24658 460.36185 293.28458zM220.47191 477.7556C 215.00871 478.7899 209.73758 475.19577 208.7033 469.73257L208.7033 469.73257L208.7033 469.73257C 207.66902 464.26566 211.26314 459.00192 216.73004 457.97134L216.73004 457.97134L216.73004 457.97134C 222.19695 456.93335 227.46808 460.52747 228.50235 465.9944L228.50235 465.9944L228.50235 465.9944C 229.53294 471.4539 225.9425 476.72134 220.47191 477.7556zM98.77791 165.58807C 93.311005 166.61865 88.03618 163.02823 87.0056 157.565L87.0056 157.565L87.0056 157.565C 85.97133 152.09811 89.565445 146.83438 95.03604 145.80008L95.03604 145.80008L95.03604 145.80008C 100.49925 144.76581 105.77037 148.35623 106.80466 153.82315L106.80466 153.82315L106.80466 153.82315C 107.83893 159.28635 104.24112 164.55377 98.77791 165.58807zM259.32016 251.68071C 257.9202 244.293 262.785 237.17126 270.1764 235.77127L270.1764 235.77127L270.1764 235.77127C 277.5715 234.3713 284.70062 239.23242 286.10062 246.62383L286.10062 246.62383L286.10062 246.62383C 287.4969 254.00783 282.63577 261.13327 275.2407 262.53326L275.2407 262.53326L275.2407 262.53326C 267.84558 263.9295 260.71646 259.0721 259.32016 251.68071zM351.4929 49.10977C 352.89285 56.50119 348.03546 63.626617 340.64035 65.02292L340.64035 65.02292L340.64035 65.02292C 333.24527 66.41919 326.11612 61.561768 324.71616 54.174072L324.71616 54.174072L324.71616 54.174072C 323.3199 46.782654 328.1773 39.657227 335.5724 38.260925L335.5724 38.260925L335.5724 38.260925C 342.96747 36.864655 350.09662 41.722076 351.4929 49.10977zM236.35548 57.010925C 243.75058 55.614655 250.876 60.47577 252.27231 67.85977L252.27231 67.85977L252.27231 67.85977C 253.67227 75.25119 248.81116 82.37662 241.41606 83.77661L241.41606 83.77661L241.41606 83.77661C 234.02097 85.16919 226.89552 80.31546 225.49556 72.92407L225.49556 72.92407L225.49556 72.92407C 224.09558 65.53265 228.96039 58.407227 236.35548 57.010925zM191.6968 171.84177C 190.30052 164.45404 195.15794 157.32861 202.55304 155.93234L202.55304 155.93234L202.55304 155.93234C 209.94812 154.53604 217.07727 159.39346 218.47354 166.78119L218.47354 166.78119L218.47354 166.78119C 219.86981 174.17258 215.00871 181.29803 207.61731 182.6943L207.61731 182.6943L207.61731 182.6943C 200.22221 184.09058 193.09308 179.23315 191.6968 171.84177zM142.64243 347.93884C 140.25989 347.5362 138.65675 345.27924 139.05939 342.90042L139.05939 342.90042L139.05939 342.90042C 139.46202 340.52158 141.72266 338.91846 144.1015 339.32108L144.1015 339.32108L144.1015 339.32108C 146.48402 339.7237 148.08716 341.98065 147.68454 344.3595L147.68454 344.3595L147.68454 344.3595C 147.2819 346.73834 145.02127 348.34146 142.64243 347.93884zM124.42064 370.02438C 122.03812 369.62177 120.43498 367.3685 120.8376 364.98596L120.8376 364.98596L120.8376 364.98596C 121.240234 362.60712 123.50087 361.004 125.879715 361.40662L125.879715 361.40662L125.879715 361.40662C 128.26225 361.80927 129.86539 364.0662 129.46275 366.44504L129.46275 366.44504L129.46275 366.44504C 129.06012 368.82758 126.799484 370.427 124.42064 370.02438zM92.92316 360.2578C 93.32579 357.879 95.58273 356.27954 97.96156 356.6822L97.96156 356.6822L97.96156 356.6822C 100.34779 357.0848 101.947235 359.34174 101.5446 361.72058L101.5446 361.72058L101.5446 361.72058C 101.13829 364.09943 98.88504 365.70258 96.5025 365.29993L96.5025 365.29993L96.5025 365.29993C 94.12366 364.8973 92.51683 362.63666 92.92316 360.2578zM137.75546 317.5052C 137.35283 319.88403 135.09589 321.48715 132.71704 321.08453L132.71704 321.08453L132.71704 321.08453C 130.3345 320.6819 128.73137 318.42493 129.1377 316.04608L129.1377 316.04608L129.1377 316.04608C 129.54033 313.66727 131.79358 312.06415 134.17612 312.46674L134.17612 312.46674L134.17612 312.46674C 136.55865 312.87308 138.16177 315.12634 137.75546 317.5052zM106.257965 307.73865C 108.6405 308.14124 110.24364 310.3982 109.841 312.78073L109.841 312.78073L109.841 312.78073C 109.43837 315.15958 107.177734 316.75903 104.79889 316.35638L104.79889 316.35638L104.79889 316.35638C 102.41635 315.95374 100.816925 313.7005 101.21585 311.31796L101.21585 311.31796L101.21585 311.31796C 101.618484 308.93915 103.87912 307.336 106.257965 307.73865zM82.28485 333.2853C 82.687485 330.9065 84.94443 329.30334 87.326965 329.70966L87.326965 329.70966L87.326965 329.70966C 89.70581 330.1123 91.308945 332.36923 90.90631 334.74808L90.90631 334.74808L90.90631 334.74808C 90.50368 337.12692 88.246735 338.72638 85.8642 338.32742L85.8642 338.32742L85.8642 338.32742C 83.48535 337.9248 81.88223 335.66415 82.28485 333.2853zM188.08421 361.37338C 182.60252 360.44623 178.90868 355.25266 179.83952 349.771L179.83952 349.771L179.83952 349.771C 180.76668 344.293 185.96394 340.60284 191.44931 341.5337L191.44931 341.5337L191.44931 341.5337C 196.93098 342.45715 200.62114 347.65442 199.69029 353.13608L199.69029 353.13608L199.69029 353.13608C 198.76314 358.61407 193.56589 362.30054 188.08421 361.37338zM139.25146 421.30984C 133.76979 420.379 130.07593 415.18542 131.00679 409.70746L131.00679 409.70746L131.00679 409.70746C 131.93394 404.22946 137.1312 400.5393 142.61287 401.46646L142.61287 401.46646L142.61287 401.46646C 148.09825 402.3973 151.7884 407.58716 150.85756 413.06885L150.85756 413.06885L150.85756 413.06885C 149.93039 418.54684 144.73314 422.237 139.25146 421.30984zM57.436306 397.25177C 58.367153 391.77008 63.564404 388.08362 69.04608 389.0108L69.04608 389.0108L69.04608 389.0108C 74.53146 389.93793 78.217926 395.1352 77.294464 400.6132L77.294464 400.6132L77.294464 400.6132C 76.3636 406.09116 71.16266 409.7813 65.68468 408.85416L65.68468 408.85416L65.68468 408.85416C 60.199306 407.9233 56.512844 402.73346 57.436306 397.25177zM173.32727 280.5297C 172.39641 286.0077 167.20285 289.70154 161.71748 288.7707L161.71748 288.7707L161.71748 288.7707C 156.23581 287.83984 152.54564 282.6463 153.47281 277.16827L153.47281 277.16827L153.47281 277.16827C 154.40366 271.6903 159.6009 268.00015 165.07889 268.9273L165.07889 268.9273L165.07889 268.9273C 170.56425 269.85815 174.25812 275.04803 173.32727 280.5297zM91.51579 256.47162C 96.99747 257.3988 100.69133 262.59604 99.76048 268.07404L99.76048 268.07404L99.76048 268.07404C 98.83331 273.552 93.63606 277.2422 88.150696 276.315L88.150696 276.315L88.150696 276.315C 82.66902 275.38416 78.97885 270.1943 79.90971 264.71262L79.90971 264.71262L79.90971 264.71262C 80.833176 259.23096 86.03412 255.54448 91.51579 256.47162zM31.084354 324.58258C 32.011513 319.1083 37.208763 315.41446 42.694134 316.3453L42.694134 316.3453L42.694134 316.3453C 48.17212 317.27615 51.86597 322.466 50.938816 327.9477L50.938816 327.9477L50.938816 327.9477C 50.007965 333.422 44.810715 337.11584 39.329033 336.185L39.329033 336.185L39.329033 336.185C 33.843662 335.2578 30.153503 330.06427 31.084354 324.58258zM379.85062 409.2605C 377.8153 408.61038 376.69235 406.4347 377.34247 404.40308L377.34247 404.40308L377.34247 404.40308C 377.9889 402.36777 380.16827 401.24854 382.1999 401.89496L382.1999 401.89496L382.1999 401.89496C 384.2352 402.54507 385.35815 404.72076 384.70804 406.75238L384.70804 406.75238L384.70804 406.75238C 384.0616 408.7877 381.88223 409.90692 379.85062 409.2605zM361.14124 426.3261C 359.10593 425.67596 357.9867 423.5003 358.63312 421.4687L358.63312 421.4687L358.63312 421.4687C 359.28323 419.43335 361.45892 418.31412 363.49423 418.96423L363.49423 418.96423L363.49423 418.96423C 365.52954 419.61438 366.65247 421.79004 366.00235 423.82166L366.00235 423.82166L366.00235 423.82166C 365.34854 425.85327 363.17654 426.97253 361.14124 426.3261zM334.78558 413.85565C 335.432 411.82034 337.6114 410.7011 339.643 411.34753L339.643 411.34753L339.643 411.34753C 341.6783 412.00134 342.80127 414.1733 342.15115 416.20862L342.15115 416.20862L342.15115 416.20862C 341.501 418.24023 339.32535 419.3595 337.29004 418.71307L337.29004 418.71307L337.29004 418.71307C 335.25842 418.06293 334.13547 415.88727 334.78558 413.85565zM379.3667 382.01093C 378.71658 384.03888 376.54092 385.1618 374.5093 384.51166L374.5093 384.51166L374.5093 384.51166C 372.47028 383.86523 371.35104 381.68958 371.99747 379.65796L371.99747 379.65796L371.99747 379.65796C 372.64758 377.62262 374.82327 376.50342 376.86227 377.1535L376.86227 377.1535L376.86227 377.1535C 378.8939 377.80365 380.01312 379.97562 379.3667 382.01093zM353.01108 369.5368C 355.0427 370.1869 356.16562 372.36258 355.5155 374.3979L355.5155 374.3979L355.5155 374.3979C 354.8654 376.42584 352.6897 377.54877 350.65808 376.89865L350.65808 376.89865L350.65808 376.89865C 348.61908 376.25223 347.49985 374.07654 348.14627 372.04492L348.14627 372.04492L348.14627 372.04492C 348.7964 370.00958 350.97205 368.88666 353.01108 369.5368zM328.8348 388.91473C 329.48492 386.88312 331.66058 385.7639 333.69223 386.4103L333.69223 386.4103L333.69223 386.4103C 335.72754 387.06042 336.84677 389.2361 336.20035 391.26773L336.20035 391.26773L336.20035 391.26773C 335.55023 393.30304 333.37454 394.42227 331.33923 393.77585L331.33923 393.77585L331.33923 393.77585C 329.30392 393.12204 328.181 390.95007 328.8348 388.91473zM417.9564 426.677C 413.27258 425.1847 410.6869 420.17584 412.1829 415.49942L412.1829 415.49942L412.1829 415.49942C 413.67892 410.8156 418.69147 408.23358 423.37158 409.7296L423.37158 409.7296L423.37158 409.7296C 428.05908 411.22192 430.64478 416.2271 429.14508 420.9109L429.14508 420.9109L429.14508 420.9109C 427.64908 425.591 422.6365 428.17303 417.9564 426.677zM367.73477 473.0718C 363.05096 471.5758 360.46527 466.56693 361.96127 461.88312L361.96127 461.88312L361.96127 461.88312C 363.45728 457.203 368.46985 454.621 373.14996 456.11703L373.14996 456.11703L373.14996 456.11703C 377.83377 457.61304 380.41577 462.6182 378.92346 467.302L378.92346 467.302L378.92346 467.302C 377.42743 471.98212 372.4149 474.56412 367.73477 473.0718zM299.11035 441.8218C 300.60266 437.138 305.61523 434.556 310.30273 436.052L310.30273 436.052L310.30273 436.052C 314.98285 437.54803 317.56854 442.5569 316.06885 447.237L316.06885 447.237L316.06885 447.237C 314.57654 451.9171 309.56766 454.5028 304.88016 453.0068L304.88016 453.0068L304.88016 453.0068C 300.19635 451.5108 297.61435 446.50192 299.11035 441.8218zM415.1158 354.06696C 413.6198 358.74704 408.61096 361.32904 403.92346 359.83304L403.92346 359.83304L403.92346 359.83304C 399.23965 358.33704 396.65765 353.33185 398.15366 348.65173L398.15366 348.65173L398.15366 348.65173C 399.64597 343.97162 404.65854 341.38965 409.34235 342.88196L409.34235 342.88196L409.34235 342.88196C 414.02615 344.38165 416.61185 349.38312 415.1158 354.06696zM346.49142 322.81696C 351.17892 324.31293 353.76093 329.3218 352.26492 334.00192L352.26492 334.00192L352.26492 334.00192C 350.7652 338.68204 345.75635 341.26773 341.07254 339.77173L341.07254 339.77173L341.07254 339.77173C 336.39243 338.2757 333.80304 333.26685 335.29904 328.58673L335.29904 328.58673L335.29904 328.58673C 336.79874 323.90662 341.80762 321.32092 346.49142 322.81696zM285.0959 374.92242C 286.5919 370.2423 291.60077 367.6603 296.28458 369.1563L296.28458 369.1563L296.28458 369.1563C 300.97208 370.64862 303.55408 375.6575 302.05804 380.33762L302.05804 380.33762L302.05804 380.33762C 300.56204 385.02142 295.5532 387.60342 290.8657 386.10742L290.8657 386.10742L290.8657 386.10742C 286.18558 384.6151 283.59616 379.60623 285.0959 374.92242z" stroke="#FFFFFF" stroke-width="1.2608353" fill="#000000" fill-rule="nonzero" />
		</g>
	</g>
</g>
</svg>