<?xml version="1.0" standalone="no"?><svg xmlns="http://www.w3.org/2000/svg" viewBox="0 0 1440 320"><path fill="#0099ff" fill-opacity="1" d="M0,320L30,309.3C60,299,120,277,180,240C240,203,300,149,360,144C420,139,480,181,540,213.3C600,245,660,267,720,266.7C780,267,840,245,900,224C960,203,1020,181,1080,197.3C1140,213,1200,267,1260,277.3C1320,288,1380,256,1410,240L1440,224L1440,320L1410,320C1380,320,1320,320,1260,320C1200,320,1140,320,1080,320C1020,320,960,320,900,320C840,320,780,320,720,320C660,320,600,320,540,320C480,320,420,320,360,320C300,320,240,320,180,320C120,320,60,320,30,320L0,320Z"></path></svg>